<svg width="100%" viewBox="0 0 200 202" fill="none" xmlns="http://www.w3.org/2000/svg">
<path d="M110.468 57.5524C101.83 59.7447 96.585 68.5565 98.7774 77.1953C100.97 85.8341 109.781 91.0787 118.42 88.8864C127.059 86.6941 132.304 77.8823 130.111 69.2435C127.919 60.6047 119.107 55.3601 110.468 57.5524ZM115.77 78.4419C112.89 79.1726 109.953 77.4243 109.222 74.5447C108.491 71.6651 110.239 68.7277 113.119 67.997C115.999 67.2662 118.936 69.0145 119.667 71.8941C120.397 74.7738 118.649 77.7111 115.77 78.4419Z" fill="var(--jlcc-main)"/>
<path d="M68.6896 68.155C60.0508 70.3473 54.8062 79.1591 56.9985 87.7979C59.1908 96.4367 68.0026 101.681 76.6414 99.489C85.2802 97.2966 90.5248 88.4848 88.3325 79.846C86.1402 71.2072 77.329 65.9625 68.6896 68.155ZM73.9908 89.0444C71.1112 89.7752 68.1738 88.0269 67.4431 85.1473C66.7123 82.2677 68.4606 79.3303 71.3402 78.5995C74.2198 77.8687 77.1572 79.617 77.8879 82.4966C78.6187 85.3762 76.871 88.3135 73.9908 89.0444Z" fill="var(--jlcc-main)"/>
<path d="M169.117 56.9195C158.218 29.5943 127.28 8.81724 98.1398 16.2122L59.8135 25.9385C30.6809 33.3316 13.3854 66.3404 16.8362 95.5648C18.8794 112.874 21.6379 124.135 25.6126 139.338C30.9995 159.942 46.1524 172.52 70.6719 176.752C77.1707 185.31 88.1335 189.217 98.7298 186.528L140.508 175.926C151.104 173.237 158.878 164.575 160.51 153.953C180.044 138.542 187.366 120.261 182.276 99.5816C178.636 84.791 175.561 73.0733 169.117 56.9195ZM171.813 102.156C175.99 119.129 169.564 133.724 152.169 146.776C150.901 147.727 150.117 149.187 150.024 150.769C149.608 157.827 144.72 163.739 137.858 165.481L96.0794 176.083C89.2183 177.824 82.102 174.959 78.3713 168.953C77.5353 167.607 76.1495 166.697 74.5822 166.465C53.0671 163.288 40.4593 153.523 36.0385 136.613C32.1772 121.845 29.4998 110.922 27.5376 94.3014C24.8214 71.3003 38.2077 42.5387 62.4641 36.3831L100.79 26.6568C125.046 20.5012 150.528 39.399 159.109 60.912C165.31 76.4579 168.165 87.336 171.813 102.156Z" fill="var(--jlcc-main)"/>
<path d="M89.0678 104.646C83.2832 106.114 81.1372 109.732 79.8554 111.894C79.276 112.871 79.0438 113.23 78.775 113.407C77.9673 113.306 77.165 113.009 76.4612 112.548C73.9726 110.915 70.6333 111.608 69.0005 114.096C67.3678 116.583 68.0607 119.923 70.5483 121.556C74.3902 124.078 78.8669 124.562 80.8651 124.055C85.9346 122.769 87.931 119.403 89.124 117.392C90.0724 115.792 90.27 115.459 91.7191 115.091C94.6031 114.36 96.3482 111.428 95.6162 108.544C94.884 105.659 91.9517 103.915 89.0678 104.646Z" fill="var(--jlcc-main)"/>
<path d="M132.101 98.0807C129.48 96.6741 126.214 97.6575 124.805 100.279C124.407 101.021 123.843 101.663 123.182 102.137C122.861 102.11 122.486 101.905 121.511 101.322C119.353 100.034 115.742 97.8769 109.957 99.3448C107.073 100.077 105.328 103.008 106.06 105.893C106.792 108.777 109.723 110.522 112.608 109.79C114.057 109.422 114.389 109.62 115.986 110.574C117.994 111.773 121.354 113.78 126.423 112.493C128.421 111.986 132.125 109.426 134.3 105.376C135.708 102.755 134.723 99.4879 132.101 98.0807Z" fill="var(--jlcc-main)"/>
<path d="M156.656 87.0276C154.834 81.007 152.045 72.2822 149.102 64.9082C149.097 64.8965 149.093 64.8849 149.088 64.8732C141.214 45.5382 120.311 32.8205 103.443 37.1012L65.1122 46.8287C47.515 51.2944 35.9029 73.2612 38.2367 93.0396C38.9388 98.9798 40.2234 106.58 42.0545 115.631C45.4278 132.304 59.0342 143.585 74.0714 145.567C77.8175 153.263 82.2056 159.779 86.8688 164.539C88.9509 166.664 92.3612 166.7 94.488 164.617C96.6137 162.534 96.6487 159.123 94.5664 156.998C91.5786 153.948 88.6859 149.942 86.0313 145.207C86.7909 145.062 87.5493 144.896 88.3063 144.704L103.794 140.774L107.77 156.441C108.502 159.325 111.433 161.07 114.318 160.338C117.202 159.606 118.947 156.674 118.215 153.79L114.239 138.123L129.737 134.19C130.489 133.999 131.231 133.783 131.966 133.547C131.891 138.975 131.259 143.877 130.087 147.983C129.27 150.845 130.927 153.827 133.789 154.643C136.656 155.461 139.633 153.797 140.448 150.941C142.28 144.524 143.029 136.691 142.649 128.126C155.16 119.046 161.445 102.858 156.656 87.0276ZM135.276 120.157C134.585 120.402 133.962 120.781 133.438 121.263C131.461 122.339 129.334 123.175 127.087 123.745L85.6563 134.259C70.8169 138.025 55.6929 128.7 52.6167 113.494C50.844 104.731 49.6064 97.4233 48.9381 91.7751C47.1561 76.6703 56.1284 60.2258 67.7628 57.2732L106.094 47.5457C117.452 44.6632 133.185 54.4161 139.101 68.9188C141.9 75.9342 144.583 84.3345 146.342 90.1481C149.911 101.947 144.751 113.969 135.276 120.157Z" fill="var(--jlcc-main)"/>
</svg>