<svg width="100%" viewBox="0 0 148 123"  stroke="#666" fill="none"  xmlns="http://www.w3.org/2000/svg">
<path d="M110.94 63.0734L106.207 55.098M73.3818 22.3568V22.3568C67.2458 22.3568 61.6892 25.9933 59.0682 31.5413C56.9822 35.957 54.1917 41.6994 50.8581 48.172M73.3818 22.3568C74.4133 22.3568 75.5373 22.3568 76.6977 22.3568C84.776 22.3568 92.1348 26.989 95.7066 34.2346C97.7207 38.3202 100.119 43.1413 102.668 48.172M73.3818 22.3568C80.5261 -9.54478 130.638 -3.56323 125.127 37.5731C125.127 37.5731 122.473 51.9498 106.207 55.098M106.207 55.098C105.011 52.7789 103.824 50.4539 102.668 48.172M50.8581 48.172C45.2545 59.0518 38.1163 71.9945 30.21 84.1662C29.2585 85.6312 27.6585 87.6292 27.6585 87.6292M50.8581 48.172C50.8581 48.172 56.2682 50.3602 58.1747 48.172C62.5633 43.1349 64.0555 54.974 71.5447 48.172C77.6684 42.6102 77.5663 55.9375 83.5879 48.172C85.9104 45.1768 90.5879 45.3695 93.1279 48.172C97.9785 53.5239 102.668 48.172 102.668 48.172M11.737 108.197L5.77527 112.142C4.10272 113.248 4.91819 115.854 6.92318 115.809L15.003 115.63M82.6693 113.444L142.163 112.761C143.896 112.742 144.785 110.678 143.609 109.405L135.129 100.222" stroke-width="3" stroke-linecap="round"/>
<path d="M88.1914 87.3316C84.1388 89.8974 78.5958 91.9873 74.4093 93.3572C72.6648 93.928 72.5094 96.2712 74.2823 96.7468C83.9535 99.341 90.2769 94.135 104.972 97.1798M88.1914 87.3316C88.1914 87.3316 91.3822 93.046 96.3456 89.2769C98.9073 87.3316 96.3456 81.2525 92.0912 82.3467M88.1914 87.3316C84.6461 79.1856 93.3912 71.1611 100.482 77.3618M100.482 77.3618C100.482 77.3618 106.627 53.7748 124.944 68.1215M100.482 77.3618C102.122 90.0183 115.029 90.6051 115.827 81.2546C115.84 81.0953 115.831 80.9263 115.798 80.7698C114.469 74.4337 106.745 74.0515 106.745 77.8481C106.272 83.4409 111.236 81.4956 111.236 81.4956M124.944 68.1215C137.353 60.9481 152.834 79.7935 143.498 90.7359M124.944 68.1215C124.944 68.1215 116.908 74.0791 119.272 81.0093M143.498 90.7359C144.561 99.9762 131.917 100.706 127.071 98.6388M143.498 90.7359C143.498 90.7359 138.6 91.3287 135.462 91.7086M127.071 98.6388C122.44 100.018 119.744 99.733 115.845 96.815M127.071 98.6388C133.335 96.9366 135.462 91.7086 135.462 91.7086M104.972 97.1798C102.254 93.5323 103.082 90.128 103.082 90.128M104.972 97.1798C113.008 101.557 115.845 96.815 115.845 96.815M111.236 91.7086C118.681 89.2769 115.845 96.815 115.845 96.815M135.462 91.7086C121.743 88.0895 127.453 72.1421 134.931 75.1C135.046 75.1457 135.161 75.2092 135.263 75.2809C139.925 78.5792 138.644 84.1704 135.462 84.1704C130.38 84.1704 134.28 79.4287 134.28 79.4287" stroke-width="3" stroke-linecap="round"/>
<path d="M70.4064 108.953C74.387 111.456 79.821 113.498 83.9522 114.844C85.7017 115.414 85.855 117.763 84.075 118.229C74.5587 120.72 68.296 115.648 53.8035 118.63M70.4064 108.953C70.4064 108.953 67.2495 114.568 62.3388 110.865C59.8042 108.953 62.3388 102.98 66.548 104.055M70.4064 108.953C73.9141 100.949 65.2619 93.0647 58.2465 99.1573M58.2465 99.1573C58.2465 99.1573 52.1666 75.9816 34.0436 90.0782M58.2465 99.1573C56.624 111.59 43.8588 112.169 43.0649 102.988C43.051 102.828 43.0606 102.658 43.0939 102.5C44.412 96.28 52.0496 95.9058 52.0496 99.6351C52.5173 105.13 47.6066 103.219 47.6066 103.219M34.0436 90.0782C21.7667 83.0299 6.44992 101.547 15.6868 112.298M34.0436 90.0782C34.0436 90.0782 41.9943 95.9318 39.6559 102.741M15.6868 112.298C14.6345 121.377 27.1452 122.094 31.939 120.063M15.6868 112.298C15.6868 112.298 20.5326 112.881 23.6375 113.254M31.939 120.063C36.5217 121.419 39.1882 121.138 43.0466 118.271M31.939 120.063C25.7421 118.391 23.6375 113.254 23.6375 113.254M53.8035 118.63C56.4927 115.046 55.6742 111.701 55.6742 111.701M53.8035 118.63C45.8528 122.93 43.0466 118.271 43.0466 118.271M47.6066 113.254C40.2405 110.865 43.0466 118.271 43.0466 118.271M23.6375 113.254C37.2099 109.698 31.562 94.0305 24.1644 96.9344C24.0493 96.9796 23.9343 97.0425 23.8332 97.1136C19.2223 100.355 20.4898 105.847 23.6375 105.847C28.6652 105.847 24.8067 101.188 24.8067 101.188" stroke-width="3" stroke-linecap="round"/>
</svg>