<svg width="100%" viewBox="0 0 148 123" stroke="#666" fill="none" xmlns="http://www.w3.org/2000/svg">
<path d="M110.94 63.0733L106 54.5001M50.8581 48.1718C45.2545 59.0517 38.1163 71.9943 30.21 84.1661C29.2585 85.631 27.6585 87.6291 27.6585 87.6291M50.8581 48.1718C57.26 32.4877 62.4865 26.776 64.7658 24.8689C65.5406 24.2206 66.4862 23.8559 67.4548 23.5689L71.5447 22.3567H76.6393C84.2681 22.3567 91.2997 26.4887 94.8872 33.2213C97.1736 37.512 99.9051 42.7188 102.668 48.1718C102.668 48.1718 97.9785 53.5238 93.1279 48.1718C90.5879 45.3694 85.9104 45.1766 83.5879 48.1718C77.5663 55.9374 77.6684 42.61 71.5447 48.1718C64.0555 54.9739 62.5633 43.1347 58.1747 48.1718C56.2682 50.3601 50.8581 48.1718 50.8581 48.1718ZM11.737 108.197L5.77527 112.142C4.10271 113.248 4.91819 115.854 6.92318 115.809L15.003 115.63M82.6693 113.444L142.163 112.761C143.896 112.741 144.785 110.677 143.609 109.404L135.129 100.222M106 54.5001L99.5 41.9936C109.673 29.8894 102.481 13.0861 88.382 5.23C87.7445 4.87477 87.7058 4.06363 88.3855 3.79775C94.5741 1.37662 117.278 -2.27568 124.5 23.0001C129.5 43 115.5 54.5001 106 54.5001Z" stroke-width="3" stroke-linecap="round"/>
<path d="M88.1914 87.3315C84.1388 89.8973 78.5958 91.9872 74.4093 93.357C72.6648 93.9279 72.5094 96.2711 74.2823 96.7466C83.9535 99.3409 90.2769 94.1348 104.972 97.1797M88.1914 87.3315C88.1914 87.3315 91.3822 93.0459 96.3456 89.2768C98.9073 87.3315 96.3456 81.2523 92.0912 82.3466M88.1914 87.3315C84.6461 79.1854 93.3912 71.161 100.482 77.3617M100.482 77.3617C100.482 77.3617 106.627 53.7746 124.944 68.1214M100.482 77.3617C102.122 90.0182 115.029 90.6049 115.827 81.2544C115.84 81.0951 115.831 80.9262 115.798 80.7697C114.469 74.4335 106.745 74.0514 106.745 77.848C106.272 83.4408 111.236 81.4955 111.236 81.4955M124.944 68.1214C137.353 60.948 152.834 79.7933 143.498 90.7358M124.944 68.1214C124.944 68.1214 116.908 74.079 119.272 81.0092M143.498 90.7358C144.561 99.9761 131.917 100.706 127.071 98.6387M143.498 90.7358C143.498 90.7358 138.6 91.3286 135.462 91.7084M127.071 98.6387C122.44 100.018 119.744 99.7329 115.845 96.8149M127.071 98.6387C133.335 96.9365 135.462 91.7084 135.462 91.7084M104.972 97.1797C102.254 93.5322 103.082 90.1279 103.082 90.1279M104.972 97.1797C113.008 101.557 115.845 96.8149 115.845 96.8149M111.236 91.7084C118.681 89.2768 115.845 96.8149 115.845 96.8149M135.462 91.7084C121.743 88.0894 127.453 72.1419 134.931 75.0999C135.046 75.1456 135.161 75.2091 135.263 75.2807C139.925 78.5791 138.644 84.1703 135.462 84.1703C130.38 84.1703 134.28 79.4286 134.28 79.4286" stroke-width="3" stroke-linecap="round"/>
<path d="M70.4064 108.953C74.387 111.456 79.821 113.498 83.9522 114.844C85.7017 115.414 85.855 117.762 84.075 118.228C74.5587 120.72 68.296 115.647 53.8035 118.629M70.4064 108.953C70.4064 108.953 67.2495 114.568 62.3388 110.864C59.8042 108.953 62.3388 102.98 66.548 104.055M70.4064 108.953C73.9141 100.949 65.2619 93.0645 58.2465 99.1571M58.2465 99.1571C58.2465 99.1571 52.1666 75.9814 34.0436 90.078M58.2465 99.1571C56.624 111.59 43.8588 112.169 43.0649 102.988C43.051 102.827 43.0606 102.657 43.0939 102.5C44.412 96.2798 52.0496 95.9056 52.0496 99.6349C52.5173 105.13 47.6066 103.219 47.6066 103.219M34.0436 90.078C21.7667 83.0297 6.44992 101.546 15.6868 112.298M34.0436 90.078C34.0436 90.078 41.9943 95.9316 39.6559 102.741M15.6868 112.298C14.6345 121.377 27.1452 122.094 31.939 120.063M15.6868 112.298C15.6868 112.298 20.5326 112.88 23.6375 113.254M31.939 120.063C36.5217 121.419 39.1882 121.138 43.0466 118.271M31.939 120.063C25.7421 118.39 23.6375 113.254 23.6375 113.254M53.8035 118.629C56.4927 115.046 55.6742 111.701 55.6742 111.701M53.8035 118.629C45.8528 122.93 43.0466 118.271 43.0466 118.271M47.6066 113.254C40.2405 110.864 43.0466 118.271 43.0466 118.271M23.6375 113.254C37.2099 109.698 31.562 94.0303 24.1644 96.9342C24.0493 96.9794 23.9343 97.0423 23.8332 97.1134C19.2223 100.354 20.4898 105.847 23.6375 105.847C28.6652 105.847 24.8067 101.188 24.8067 101.188" stroke-width="3" stroke-linecap="round"/>
</svg>