<svg viewBox="0 0 916 813" fill="none" xmlns="http://www.w3.org/2000/svg">
  <g opacity=".15">
    <path d="M342.324 309.137C152.73 452.392 63.511 638.789 40.166 693.797c-2.452 5.778 3.365 11.386 9.105 8.844 57.746-25.573 264.283-109.692 408.202-73.738M342.324 309.137c143.742 37.943 327.7 62.093 327.7 62.093m-327.7-62.093C473.858 219.948 706.75 122.284 706.75 122.284" stroke="#D97D7D" stroke-width="29" stroke-linecap="round" stroke-linejoin="round"/>
    <path d="M554.074 328.658c-1.427 1.245-2.449 3.016-3.111 5.041-.972 2.972-.901 5.599-.472 8.805.396 2.95 1.054 6.527 2.397 8.28 1.152 1.504 3.323 2.591 5.921 3.261 2.275.586 4.877.853 7.409.799 2.661-.057 5.245-.468 7.291-1.234 1.116-.418 2.072-.942 2.794-1.571.968-.845 1.786-2.056 2.434-3.493 1.399-3.097 2.012-7.24 1.645-11.006-.227-2.326-.827-4.508-1.845-6.213a8.406 8.406 0 0 0-1.049-1.414c-2.053-2.222-5.748-3.65-9.712-4.156a25.673 25.673 0 0 0-2.924-.203c-2.22-.027-4.419.238-6.366.817-1.722.512-3.246 1.269-4.412 2.287Z" fill="#F28B8B"/>
    <path d="M550.963 333.699c.662-2.025 1.684-3.796 3.111-5.041 1.166-1.018 2.69-1.775 4.412-2.287m-7.523 7.328c-7.608-1.745-27.041-6.616-31.227-28.976-.23-1.23.777-2.337 2.027-2.395a30.066 30.066 0 0 0 4.406-.518c.933-.185 1.543-1.062 1.487-2.012-.701-11.97.846-11.238 1.433-10.574.159.181.309.372.495.524 15.53 12.672 35.493 18.328 28.902 36.623m-7.523 7.328c-.972 2.972-.901 5.599-.472 8.805m7.995-16.133c1.947-.579 4.146-.844 6.366-.817.978.012 1.959.08 2.924.203m0 0c3.964.506 7.659 1.934 9.712 4.156.39.42.739.895 1.049 1.414m-10.761-5.57s-10.995-28.879 3.452-42.144c.907-.833 2.322-.493 2.865.613 1.191 2.425 3.178 6.551 4.745 10.208.303.708.984 1.206 1.752 1.148 4.244-.323 6.944-3.443 8.472-6.033.828-1.403 2.992-1.703 3.846-.317 14.76 23.935-14.371 42.095-14.371 42.095m0 0c1.018 1.705 1.618 3.887 1.845 6.213m0 0s15.344-27.887 35.799-16.078c.625.361.986 1.059.838 1.765-.387 1.847-1.608 5.701-5.407 9.943-1.223 1.365-.457 4.28 1.063 5.304 3.046 2.054 5.196 5.434 6.255 7.375.465.851.148 1.897-.676 2.409-24.003 14.905-39.517.288-39.517.288m1.645-11.006c.367 3.766-.246 7.909-1.645 11.006m0 0c-.648 1.437-1.466 2.648-2.434 3.493-.722.629-1.678 1.153-2.794 1.571m0 0s27.074 5.458 28.441 23.416c.051.663-.276 1.298-.869 1.599-1.499.761-4.749 2.02-9.117 1.507-1.522-.179-2.964 1.15-2.818 2.676.395 4.122-.282 7.138-.784 8.706-.243.759-1.014 1.198-1.809 1.133-32.991-2.708-20.335-37.803-20.335-37.803m7.291-1.234c-2.046.766-4.63 1.177-7.291 1.234m0 0c-2.532.054-5.134-.213-7.409-.799m0 0c-2.598-.67-4.769-1.757-5.921-3.261-1.343-1.753-2.001-5.33-2.397-8.28m8.318 11.541s-17.011 25.458-39.463 15.632a1.814 1.814 0 0 1-1.064-2.012c.289-1.453.87-3.837 1.906-6.205.795-1.817-.915-5.94-2.571-7.031-1.416-.932-2.491-2.071-3.168-2.9a1.651 1.651 0 0 1 .092-2.19c10.766-11.425 35.95-6.835 35.95-6.835" stroke="#F28B8B" stroke-width="10"/>
    <path d="M332.102 319.071c-1.461 1.274-2.506 3.087-3.183 5.158-.995 3.041-.923 5.73-.483 9.011.404 3.018 1.078 6.678 2.452 8.473 1.179 1.538 3.401 2.651 6.06 3.337 2.327.6 4.989.872 7.58.817 2.723-.058 5.368-.479 7.462-1.263 1.142-.427 2.12-.963 2.858-1.607.991-.865 1.828-2.105 2.492-3.574 1.431-3.17 2.058-7.409 1.682-11.263-.232-2.38-.845-4.613-1.888-6.357a8.664 8.664 0 0 0-1.072-1.448c-2.102-2.274-5.883-3.735-9.939-4.252a26.196 26.196 0 0 0-2.992-.208c-2.271-.028-4.522.243-6.514.836-1.762.523-3.322 1.298-4.515 2.34Z" fill="#F28B8B"/>
    <path d="M328.919 324.229c.677-2.071 1.722-3.884 3.183-5.158 1.193-1.042 2.753-1.817 4.515-2.34m-7.698 7.498c-7.793-1.787-27.704-6.778-31.966-29.706-.228-1.23.78-2.337 2.03-2.393a30.771 30.771 0 0 0 4.602-.54c.932-.187 1.542-1.062 1.486-2.012-.725-12.329.872-11.535 1.469-10.853.158.181.308.372.495.524 15.893 12.971 36.327 18.758 29.582 37.482m-7.698 7.498c-.995 3.041-.923 5.73-.483 9.011m8.181-16.509c1.992-.593 4.243-.864 6.514-.836 1 .012 2.004.082 2.992.208m0 0c4.056.517 7.837 1.978 9.939 4.252.398.431.755.916 1.072 1.448m-11.011-5.7s-11.272-29.606 3.573-43.163c.91-.831 2.324-.49 2.867.615 1.219 2.481 3.275 6.749 4.891 10.522.303.707.984 1.205 1.752 1.149 4.403-.321 7.187-3.582 8.746-6.254.82-1.407 2.982-1.707 3.841-.323 15.215 24.53-14.659 43.154-14.659 43.154m0 0c1.043 1.744 1.656 3.977 1.888 6.357m0 0s15.714-28.558 36.657-16.439c.625.362.987 1.06.84 1.766-.392 1.893-1.65 5.896-5.621 10.293-1.228 1.36-.46 4.259 1.069 5.269 3.189 2.106 5.433 5.647 6.521 7.648.463.853.145 1.898-.678 2.411-24.581 15.286-40.47.315-40.47.315m1.682-11.263c.376 3.854-.251 8.093-1.682 11.263m0 0c-.664 1.469-1.501 2.709-2.492 3.574-.738.644-1.716 1.18-2.858 1.607m0 0s27.729 5.591 29.105 23.987c.05.663-.276 1.298-.868 1.6-1.533.781-4.9 2.096-9.431 1.543-1.522-.185-2.963 1.144-2.813 2.669.423 4.284-.286 7.411-.804 9.017-.244.758-1.016 1.198-1.81 1.133-33.799-2.751-20.841-38.686-20.841-38.686m7.462-1.263c-2.094.784-4.739 1.205-7.462 1.263m0 0c-2.591.055-5.253-.217-7.58-.817m0 0c-2.659-.686-4.881-1.799-6.06-3.337-1.374-1.795-2.048-5.455-2.452-8.473m8.512 11.81s-17.423 26.073-40.413 15.983a1.818 1.818 0 0 1-1.066-2.013c.3-1.511.913-4.037 2.02-6.525.807-1.811-.893-5.898-2.563-6.968-1.528-.978-2.681-2.202-3.393-3.077a1.655 1.655 0 0 1 .093-2.192c11.004-11.722 36.81-7.018 36.81-7.018" stroke="#F28B8B" stroke-width="10"/>
    <path d="M681.595 98.23c-2.575-.305-5.311.284-7.975 1.47-3.91 1.742-6.513 4.225-9.374 7.606-2.632 3.109-5.66 7.062-6.207 10.035-.469 2.551.42 5.754 2.126 9.007 1.493 2.848 3.611 5.735 5.991 8.256 2.501 2.65 5.291 4.896 7.947 6.27 1.45.75 2.859 1.24 4.16 1.394 1.747.208 3.728-.074 5.782-.734 4.429-1.423 9.198-4.605 12.686-8.436 2.153-2.366 3.818-4.978 4.614-7.577.242-.792.404-1.582.474-2.364.37-4.125-1.572-9.188-4.698-13.677a35.054 35.054 0 0 0-2.479-3.156c-2.01-2.278-4.299-4.268-6.674-5.713-2.101-1.279-4.269-2.131-6.373-2.38Z" fill="#F78E8E"/>
    <path d="M673.62 99.7c2.664-1.186 5.4-1.775 7.975-1.47 2.104.25 4.272 1.102 6.373 2.381m-14.348-.91c-5.263-9.416-18.352-33.987 1.288-59.01.773-.984 2.272-.986 3.136-.08 1.298 1.362 3.298 3.286 5.679 4.99.773.555 1.837.414 2.502-.266 12.365-12.645 12.643-9.706 12.451-8.547-.04.238-.077.476-.065.717 1.357 27.454 14.025 52.985-10.643 63.106m-14.348-.91c-3.91 1.741-6.513 4.224-9.374 7.605m23.722-6.695c2.375 1.445 4.664 3.435 6.674 5.713a35.054 35.054 0 0 1 2.479 3.156m0 0c3.126 4.489 5.068 9.552 4.698 13.677-.07.782-.232 1.572-.474 2.364m-4.224-16.041s19.643-38.492 46.824-35.096c1.222.153 1.919 1.428 1.465 2.573-1.33 3.358-4.002 9.975-6.523 15.419-.323.699-.232 1.532.307 2.082 4.763 4.864 11.509 4.151 15.637 3.062 1.575-.415 3.247.956 2.839 2.533-10.001 38.698-56.325 25.468-56.325 25.468m0 0c-.796 2.599-2.461 5.211-4.614 7.577m0 0s42.781-10.113 49.282 22.011c.144.708-.127 1.448-.741 1.827-2.161 1.336-7.965 4.218-17.352 3.825-1.831-.077-3.347 2.334-2.871 4.103 1.569 5.827-.47 12.601-1.571 15.589-.336.91-1.33 1.37-2.264 1.109-37.773-10.545-37.169-40.028-37.169-40.028m12.686-8.436c-3.488 3.831-8.257 7.013-12.686 8.436m0 0c-2.054.66-4.035.942-5.782.734-1.301-.154-2.71-.644-4.16-1.394m0 0s19.52 32.847 2.065 50.661c-.465.475-1.153.663-1.779.44-2.125-.755-7.171-3.082-10.978-9.061-.823-1.293-2.765-1.469-3.76-.303-4.409 5.169-8.778 7.469-10.841 8.341-.734.31-1.579.026-2.068-.603-28.181-36.233 19.414-55.745 19.414-55.745m7.947 6.27c-2.656-1.374-5.446-3.62-7.947-6.27m0 0c-2.38-2.521-4.498-5.408-5.991-8.256m0 0c-1.706-3.253-2.595-6.456-2.126-9.007.547-2.973 3.575-6.926 6.207-10.035m-4.081 19.042s-41.901 6.165-52.27-26.217c-.26-.813.05-1.708.777-2.155 1.994-1.225 6.239-3.596 10.861-4.719 1.927-.468 3.602-4.11 2.985-5.994-1.123-3.433-.775-6.92-.444-8.778.148-.83.865-1.41 1.708-1.411 21.705-.034 40.464 30.232 40.464 30.232" stroke="#F78E8E" stroke-width="10"/>
    <path d="M217.154 416.02c-2.575-.305-5.311.283-7.975 1.47-3.909 1.742-6.512 4.225-9.374 7.606-2.632 3.109-5.659 7.061-6.206 10.035-.469 2.551.42 5.754 2.125 9.007 1.493 2.848 3.611 5.734 5.991 8.256 2.501 2.649 5.291 4.896 7.948 6.27 1.449.75 2.859 1.24 4.16 1.394 1.747.207 3.728-.074 5.781-.734 4.43-1.423 9.199-4.605 12.686-8.436 2.154-2.366 3.819-4.979 4.614-7.578.243-.791.404-1.581.474-2.363.371-4.126-1.572-9.188-4.698-13.677a35.223 35.223 0 0 0-2.478-3.156c-2.011-2.278-4.299-4.268-6.674-5.713-2.101-1.279-4.27-2.132-6.374-2.381Z" fill="#F78E8E"/>
    <path d="M209.179 417.49c2.664-1.187 5.4-1.775 7.975-1.47 2.104.249 4.273 1.102 6.374 2.381m-14.349-.911c-5.262-9.415-18.352-33.986 1.289-59.009.773-.984 2.272-.986 3.135-.081 1.298 1.363 3.298 3.287 5.679 4.992.773.553 1.837.413 2.502-.267 12.365-12.645 12.644-9.707 12.451-8.547a3.384 3.384 0 0 0-.065.716c1.358 27.455 14.025 52.985-10.642 63.107m-14.349-.911c-3.909 1.742-6.512 4.225-9.374 7.606m23.723-6.695c2.375 1.445 4.663 3.435 6.674 5.713a35.223 35.223 0 0 1 2.478 3.156m0 0c3.126 4.489 5.069 9.551 4.698 13.677-.07.782-.231 1.572-.474 2.363m-4.224-16.04s19.643-38.492 46.825-35.096c1.222.153 1.918 1.428 1.465 2.573-1.33 3.358-4.003 9.975-6.523 15.419-.324.698-.233 1.532.306 2.082 4.764 4.863 11.51 4.151 15.638 3.062 1.574-.416 3.246.956 2.839 2.533-10.001 38.698-56.326 25.467-56.326 25.467m0 0c-.795 2.599-2.46 5.212-4.614 7.578m0 0s42.781-10.113 49.283 22.011c.143.707-.128 1.448-.742 1.827-2.16 1.336-7.965 4.218-17.351 3.825-1.831-.077-3.348 2.333-2.872 4.103 1.569 5.827-.47 12.601-1.571 15.588-.335.911-1.329 1.371-2.264 1.11-37.773-10.545-37.169-40.028-37.169-40.028m12.686-8.436c-3.487 3.831-8.256 7.013-12.686 8.436m0 0c-2.053.66-4.034.941-5.781.734-1.301-.154-2.711-.644-4.16-1.394m0 0s19.52 32.846 2.065 50.661c-.466.475-1.153.663-1.78.44-2.125-.755-7.171-3.082-10.977-9.061-.824-1.293-2.766-1.47-3.76-.303-4.409 5.169-8.778 7.469-10.841 8.34-.734.311-1.579.027-2.069-.602-28.181-36.234 19.414-55.745 19.414-55.745m7.948 6.27c-2.657-1.374-5.447-3.621-7.948-6.27m0 0c-2.38-2.522-4.498-5.408-5.991-8.256m0 0c-1.705-3.253-2.594-6.456-2.125-9.007.547-2.974 3.574-6.926 6.206-10.035m-4.081 19.042s-41.9 6.165-52.269-26.217c-.261-.813.049-1.708.777-2.155 1.994-1.225 6.238-3.596 10.861-4.719 1.927-.468 3.602-4.11 2.985-5.995-1.124-3.432-.776-6.919-.444-8.777a1.717 1.717 0 0 1 1.707-1.412c21.705-.033 40.464 30.233 40.464 30.233" stroke="#F78E8E" stroke-width="10"/>
    <path d="M515.795 193.023c-1.46 1.274-2.505 3.086-3.183 5.158-.994 3.041-.922 5.729-.483 9.011.405 3.018 1.078 6.678 2.453 8.472 1.179 1.539 3.4 2.652 6.059 3.337 2.328.6 4.99.873 7.581.818 2.723-.059 5.367-.479 7.461-1.263 1.142-.428 2.121-.964 2.859-1.608.99-.864 1.827-2.104 2.491-3.573 1.432-3.17 2.058-7.409 1.683-11.264-.232-2.379-.846-4.613-1.888-6.357a8.66 8.66 0 0 0-1.073-1.447c-2.101-2.274-5.882-3.735-9.938-4.253a26.196 26.196 0 0 0-2.992-.208c-2.272-.027-4.522.244-6.515.836-1.762.524-3.322 1.299-4.515 2.341Z" fill="#F28B8B"/>
    <path d="M512.612 198.181c.678-2.072 1.723-3.884 3.183-5.158 1.193-1.042 2.753-1.817 4.515-2.341m-7.698 7.499c-7.792-1.787-27.703-6.778-31.965-29.706-.229-1.231.779-2.337 2.03-2.393a30.76 30.76 0 0 0 4.601-.54c.933-.187 1.542-1.062 1.486-2.012-.725-12.329.873-11.535 1.47-10.853.158.181.308.372.494.524 15.893 12.971 36.328 18.758 29.582 37.481m-7.698 7.499c-.994 3.041-.922 5.729-.483 9.011m8.181-16.51c1.993-.592 4.243-.863 6.515-.836 1 .012 2.004.082 2.992.208m0 0c4.056.518 7.837 1.979 9.938 4.253.398.43.756.916 1.073 1.447m-11.011-5.7s-11.272-29.606 3.573-43.163c.909-.83 2.323-.49 2.867.616 1.219 2.481 3.275 6.748 4.891 10.521.303.708.984 1.206 1.752 1.15 4.403-.321 7.187-3.583 8.745-6.255.821-1.407 2.983-1.707 3.841-.323 15.216 24.531-14.658 43.154-14.658 43.154m0 0c1.042 1.744 1.656 3.978 1.888 6.357m0 0s15.713-28.557 36.657-16.438c.624.361.986 1.059.84 1.766-.393 1.893-1.65 5.895-5.621 10.293-1.228 1.36-.461 4.258 1.068 5.268 3.19 2.106 5.433 5.648 6.521 7.649.464.852.146 1.898-.678 2.41-24.58 15.286-40.47.316-40.47.316m1.683-11.264c.375 3.855-.251 8.094-1.683 11.264m0 0c-.664 1.469-1.501 2.709-2.491 3.573-.738.644-1.717 1.18-2.859 1.608m0 0s27.729 5.591 29.106 23.986c.05.663-.276 1.298-.868 1.6-1.534.782-4.9 2.096-9.432 1.544-1.521-.185-2.963 1.144-2.812 2.669.422 4.283-.286 7.41-.804 9.017-.245.758-1.016 1.197-1.811 1.133-33.799-2.752-20.84-38.686-20.84-38.686m7.461-1.263c-2.094.784-4.738 1.204-7.461 1.263m0 0c-2.591.055-5.253-.218-7.581-.818m0 0c-2.659-.685-4.88-1.798-6.059-3.337-1.375-1.794-2.048-5.454-2.453-8.472m8.512 11.809s-17.422 26.074-40.413 15.983a1.818 1.818 0 0 1-1.065-2.012c.299-1.512.912-4.037 2.02-6.525.806-1.812-.894-5.899-2.564-6.968-1.528-.979-2.681-2.203-3.392-3.077a1.655 1.655 0 0 1 .093-2.192c11.003-11.722 36.809-7.018 36.809-7.018" stroke="#F28B8B" stroke-width="10"/>
    <path d="M332.102 319.071c-1.461 1.274-2.506 3.087-3.183 5.158-.995 3.041-.923 5.73-.483 9.011.404 3.018 1.078 6.678 2.452 8.473 1.179 1.538 3.401 2.651 6.06 3.337 2.327.6 4.989.872 7.58.817 2.723-.058 5.368-.479 7.462-1.263 1.142-.427 2.12-.963 2.858-1.607.991-.865 1.828-2.105 2.492-3.574 1.431-3.17 2.058-7.409 1.682-11.263-.232-2.38-.845-4.613-1.888-6.357a8.664 8.664 0 0 0-1.072-1.448c-2.102-2.274-5.883-3.735-9.939-4.252a26.196 26.196 0 0 0-2.992-.208c-2.271-.028-4.522.243-6.514.836-1.762.523-3.322 1.298-4.515 2.34Z" fill="#F28B8B"/>
    <path d="M328.919 324.229c.677-2.071 1.722-3.884 3.183-5.158 1.193-1.042 2.753-1.817 4.515-2.34m-7.698 7.498c-7.793-1.787-27.704-6.778-31.966-29.706-.228-1.23.78-2.337 2.03-2.393a30.771 30.771 0 0 0 4.602-.54c.932-.187 1.542-1.062 1.486-2.012-.725-12.329.872-11.535 1.469-10.853.158.181.308.372.495.524 15.893 12.971 36.327 18.758 29.582 37.482m-7.698 7.498c-.995 3.041-.923 5.73-.483 9.011m8.181-16.509c1.992-.593 4.243-.864 6.514-.836 1 .012 2.004.082 2.992.208m0 0c4.056.517 7.837 1.978 9.939 4.252.398.431.755.916 1.072 1.448m-11.011-5.7s-11.272-29.606 3.573-43.163c.91-.831 2.324-.49 2.867.615 1.219 2.481 3.275 6.749 4.891 10.522.303.707.984 1.205 1.752 1.149 4.403-.321 7.187-3.582 8.746-6.254.82-1.407 2.982-1.707 3.841-.323 15.215 24.53-14.659 43.154-14.659 43.154m0 0c1.043 1.744 1.656 3.977 1.888 6.357m0 0s15.714-28.558 36.657-16.439c.625.362.987 1.06.84 1.766-.392 1.893-1.65 5.896-5.621 10.293-1.228 1.36-.46 4.259 1.069 5.269 3.189 2.106 5.433 5.647 6.521 7.648.463.853.145 1.898-.678 2.411-24.581 15.286-40.47.315-40.47.315m1.682-11.263c.376 3.854-.251 8.093-1.682 11.263m0 0c-.664 1.469-1.501 2.709-2.492 3.574-.738.644-1.716 1.18-2.858 1.607m0 0s27.729 5.591 29.105 23.987c.05.663-.276 1.298-.868 1.6-1.533.781-4.9 2.096-9.431 1.543-1.522-.185-2.963 1.144-2.813 2.669.423 4.284-.286 7.411-.804 9.017-.244.758-1.016 1.198-1.81 1.133-33.799-2.751-20.841-38.686-20.841-38.686m7.462-1.263c-2.094.784-4.739 1.205-7.462 1.263m0 0c-2.591.055-5.253-.217-7.58-.817m0 0c-2.659-.686-4.881-1.799-6.06-3.337-1.374-1.795-2.048-5.455-2.452-8.473m8.512 11.81s-17.423 26.073-40.413 15.983a1.818 1.818 0 0 1-1.066-2.013c.3-1.511.913-4.037 2.02-6.525.807-1.811-.893-5.898-2.563-6.968-1.528-.978-2.681-2.202-3.393-3.077a1.655 1.655 0 0 1 .093-2.192c11.004-11.722 36.81-7.018 36.81-7.018" stroke="#F28B8B" stroke-width="10"/>
    <path d="M681.748 340c-2.884-1.664-6.41-2.354-10.155-2.302-5.495.076-9.824 1.689-14.912 4.23-4.679 2.337-10.253 5.468-12.404 8.701-1.845 2.772-2.417 7.002-2.051 11.704.32 4.117 1.359 8.595 2.89 12.775 1.611 4.393 3.766 8.456 6.205 11.423 1.331 1.618 2.746 2.91 4.204 3.751 1.956 1.129 4.436 1.799 7.194 2.06 5.947.563 13.186-.778 19.24-3.534 3.739-1.701 7.027-3.941 9.281-6.606a14.933 14.933 0 0 0 1.756-2.549c2.525-4.68 2.796-11.638 1.379-18.517a44.996 44.996 0 0 0-1.327-4.979c-1.219-3.707-2.913-7.213-4.984-10.121-1.832-2.573-3.959-4.676-6.316-6.036Z" fill="#FF9393"/>
    <path d="M671.593 337.698c3.745-.052 7.271.638 10.155 2.302 2.357 1.36 4.484 3.463 6.316 6.036m-16.471-8.338c-1.451-13.851-4.486-49.79 31.989-69.305 1.103-.59 2.488-.005 2.91 1.173.837 2.34 2.379 6.143 4.651 9.802.502.808 1.545 1.094 2.424.73 21.925-9.09 20.194-5.061 19.385-3.872a2.98 2.98 0 0 0-.347.63c-12.336 33.112-10.274 69.724-44.541 69.18m-16.471-8.338c-5.495.076-9.824 1.689-14.912 4.23m31.383 4.108c2.071 2.908 3.765 6.414 4.984 10.121a44.996 44.996 0 0 1 1.327 4.979m0 0c1.417 6.879 1.146 13.837-1.379 18.517a14.933 14.933 0 0 1-1.756 2.549m3.135-21.066s43.2-35.925 73.59-17.373c1.051.641 1.197 2.088.33 2.963-3.125 3.154-10.158 10.163-16.24 15.606-.574.514-.816 1.313-.553 2.037 3.27 9.001 12.736 11.389 18.128 12.011 1.618.187 2.598 2.118 1.623 3.422-31.374 42.009-80.013 2.4-80.013 2.4m0 0c-2.254 2.665-5.542 4.905-9.281 6.606m0 0s55.899 9.774 46.945 51.251c-.152.705-.691 1.282-1.403 1.401-3.076.513-12.142 1.238-24.066-4.877-1.631-.836-3.879.746-3.988 2.576-.514 8.557-7.407 16.504-10.225 19.414-.675.697-1.771.724-2.53.12-39.71-31.646-23.973-66.351-23.973-66.351m19.24-3.534c-6.054 2.756-13.293 4.097-19.24 3.534m0 0c-2.758-.261-5.238-.931-7.194-2.06-1.458-.841-2.873-2.133-4.204-3.751m0 0s6.448 48.949-23.49 60.942c-.617.248-1.324.151-1.819-.293-2.062-1.848-7.419-7.51-8.732-17.416-.202-1.52-1.912-2.445-3.272-1.738-8.58 4.46-15.488 4.852-18.256 4.791-.797-.018-1.462-.616-1.667-1.386-15.294-57.396 51.031-56.323 51.031-56.323m6.205 11.423c-2.439-2.967-4.594-7.03-6.205-11.423m0 0c-1.531-4.18-2.57-8.658-2.89-12.775m0 0c-.366-4.702.206-8.932 2.051-11.704 2.151-3.233 7.725-6.364 12.404-8.701m-14.455 20.405s-52.893-14.022-48.37-57.803c.088-.849.725-1.553 1.569-1.684 3.059-.474 10.615-1.346 17.458.238 1.932.448 4.683-2.061 4.639-4.044-.128-5.695 2.746-10.658 4.206-12.803.474-.696 1.36-.943 2.139-.623 25.933 10.671 32.814 56.314 32.814 56.314" stroke="#FF9393" stroke-width="10"/>
    <path d="M622.259 130.271c-2.884-1.664-6.41-2.354-10.154-2.302-5.496.076-9.825 1.689-14.912 4.23-4.68 2.337-10.254 5.468-12.405 8.701-1.845 2.772-2.417 7.002-2.051 11.704.32 4.116 1.359 8.595 2.891 12.775 1.61 4.393 3.765 8.456 6.204 11.423 1.331 1.618 2.746 2.91 4.204 3.751 1.956 1.128 4.436 1.799 7.194 2.06 5.948.563 13.186-.778 19.241-3.534 3.738-1.701 7.026-3.941 9.28-6.606a14.876 14.876 0 0 0 1.756-2.549c2.525-4.681 2.796-11.638 1.38-18.517a45 45 0 0 0-1.328-4.979c-1.219-3.707-2.912-7.213-4.984-10.121-1.832-2.573-3.959-4.677-6.316-6.036Z" fill="#FF9393"/>
    <path d="M612.105 127.969c3.744-.052 7.27.638 10.154 2.302 2.357 1.359 4.484 3.463 6.316 6.036m-16.47-8.338c-1.452-13.851-4.486-49.79 31.988-69.305 1.103-.59 2.488-.005 2.91 1.173.837 2.34 2.379 6.143 4.651 9.802.502.808 1.545 1.094 2.424.73 21.925-9.09 20.195-5.061 19.385-3.872a3.014 3.014 0 0 0-.347.63c-12.336 33.112-10.274 69.724-44.541 69.18m-16.47-8.338c-5.496.076-9.825 1.689-14.912 4.23m31.382 4.108c2.072 2.908 3.765 6.414 4.984 10.121a45 45 0 0 1 1.328 4.979m0 0c1.416 6.879 1.145 13.836-1.38 18.517a14.876 14.876 0 0 1-1.756 2.549m3.136-21.066s43.2-35.925 73.589-17.374c1.051.642 1.197 2.089.33 2.964-3.125 3.153-10.157 10.162-16.24 15.606-.574.514-.816 1.313-.553 2.037 3.27 9.001 12.736 11.389 18.129 12.011 1.617.187 2.597 2.118 1.622 3.422-31.374 42.009-80.013 2.4-80.013 2.4m0 0c-2.254 2.665-5.542 4.905-9.28 6.606m0 0s55.898 9.774 46.944 51.251c-.152.705-.691 1.282-1.403 1.401-3.076.513-12.142 1.238-24.066-4.877-1.631-.836-3.879.746-3.988 2.575-.514 8.558-7.407 16.504-10.225 19.415-.675.697-1.771.724-2.53.12-39.71-31.646-23.973-66.351-23.973-66.351m19.241-3.534c-6.055 2.756-13.293 4.097-19.241 3.534m0 0c-2.758-.261-5.238-.932-7.194-2.06-1.458-.841-2.873-2.133-4.204-3.751m0 0s6.448 48.949-23.49 60.942c-.617.248-1.324.151-1.819-.293-2.062-1.848-7.419-7.51-8.732-17.416-.201-1.52-1.911-2.445-3.271-1.738-8.581 4.46-15.489 4.852-18.257 4.791-.797-.018-1.462-.616-1.667-1.386-15.294-57.396 51.032-56.323 51.032-56.323m6.204 11.423c-2.439-2.967-4.594-7.03-6.204-11.423m0 0c-1.532-4.18-2.571-8.659-2.891-12.775m0 0c-.366-4.702.206-8.932 2.051-11.704 2.151-3.233 7.725-6.364 12.405-8.701m-14.456 20.405s-52.893-14.022-48.37-57.803c.088-.85.725-1.553 1.569-1.684 3.059-.474 10.615-1.346 17.458.238 1.932.447 4.683-2.062 4.639-4.044-.127-5.695 2.746-10.659 4.206-12.803.474-.696 1.36-.944 2.139-.623 25.933 10.67 32.815 56.314 32.815 56.314" stroke="#FF9393" stroke-width="10"/>
    <path d="M392.167 206.27c-2.884-1.664-6.41-2.354-10.154-2.302-5.496.076-9.825 1.689-14.912 4.229-4.68 2.337-10.254 5.469-12.405 8.701-1.845 2.772-2.417 7.002-2.051 11.705.32 4.116 1.359 8.595 2.891 12.774 1.61 4.394 3.765 8.457 6.204 11.423 1.331 1.619 2.746 2.911 4.204 3.751 1.956 1.129 4.436 1.799 7.194 2.061 5.948.562 13.186-.779 19.241-3.534 3.738-1.701 7.026-3.942 9.28-6.606a14.915 14.915 0 0 0 1.756-2.549c2.525-4.681 2.796-11.639 1.38-18.518a45.119 45.119 0 0 0-1.328-4.979c-1.219-3.706-2.912-7.213-4.984-10.121-1.831-2.572-3.959-4.676-6.316-6.035Z" fill="#FF9393"/>
    <path d="M382.013 203.968c3.744-.052 7.27.638 10.154 2.302 2.357 1.359 4.485 3.463 6.316 6.035m-16.47-8.337c-1.452-13.851-4.486-49.79 31.988-69.305 1.103-.59 2.488-.006 2.91 1.173.837 2.339 2.379 6.142 4.651 9.801.502.808 1.545 1.095 2.424.73 21.925-9.09 20.195-5.061 19.385-3.872a3.032 3.032 0 0 0-.347.631c-12.336 33.111-10.274 69.723-44.541 69.179m-16.47-8.337c-5.496.076-9.825 1.689-14.912 4.229m31.382 4.108c2.072 2.908 3.765 6.415 4.984 10.121a45.119 45.119 0 0 1 1.328 4.979m0 0c1.416 6.879 1.145 13.837-1.38 18.518a14.915 14.915 0 0 1-1.756 2.549m3.136-21.067s43.2-35.925 73.589-17.373c1.051.642 1.197 2.089.33 2.963-3.125 3.154-10.157 10.163-16.24 15.607-.573.513-.816 1.313-.553 2.036 3.27 9.001 12.736 11.389 18.129 12.012 1.617.187 2.597 2.117 1.622 3.422-31.374 42.008-80.013 2.4-80.013 2.4m0 0c-2.254 2.664-5.542 4.905-9.28 6.606m0 0s55.898 9.774 46.944 51.251c-.152.705-.691 1.282-1.403 1.401-3.076.513-12.142 1.237-24.066-4.878-1.631-.836-3.879.747-3.988 2.576-.513 8.557-7.407 16.504-10.225 19.415-.675.697-1.771.724-2.53.119-39.71-31.646-23.973-66.35-23.973-66.35m19.241-3.534c-6.055 2.755-13.293 4.096-19.241 3.534m0 0c-2.758-.262-5.238-.932-7.194-2.061-1.458-.84-2.873-2.132-4.204-3.751m0 0s6.448 48.949-23.49 60.943c-.617.247-1.324.15-1.819-.293-2.062-1.848-7.419-7.511-8.732-17.417-.201-1.519-1.911-2.444-3.271-1.737-8.581 4.459-15.489 4.852-18.257 4.79-.797-.017-1.462-.615-1.667-1.385-15.294-57.396 51.032-56.324 51.032-56.324m6.204 11.423c-2.439-2.966-4.594-7.029-6.204-11.423m0 0c-1.532-4.179-2.571-8.658-2.891-12.774m0 0c-.366-4.703.206-8.933 2.051-11.705 2.151-3.232 7.725-6.364 12.405-8.701m-14.456 20.406s-52.893-14.023-48.37-57.804c.088-.849.725-1.552 1.569-1.683 3.059-.474 10.615-1.347 17.458.238 1.932.447 4.683-2.062 4.639-4.044-.127-5.696 2.746-10.659 4.206-12.803.474-.697 1.36-.944 2.139-.623 25.933 10.67 32.815 56.313 32.815 56.313" stroke="#FF9393" stroke-width="10"/>
    <path d="M535.871 395.983c-2.575-.305-5.311.284-7.975 1.47-3.91 1.742-6.513 4.225-9.374 7.606-2.632 3.109-5.66 7.062-6.207 10.036-.469 2.55.42 5.753 2.126 9.006 1.493 2.848 3.611 5.735 5.991 8.256 2.501 2.65 5.291 4.896 7.947 6.27 1.449.75 2.859 1.24 4.16 1.395 1.747.207 3.728-.075 5.782-.735 4.429-1.423 9.198-4.605 12.686-8.436 2.153-2.366 3.818-4.978 4.614-7.577.242-.792.404-1.582.474-2.364.37-4.125-1.573-9.188-4.698-13.676a35.106 35.106 0 0 0-2.479-3.157c-2.01-2.278-4.299-4.268-6.674-5.713-2.101-1.279-4.269-2.131-6.373-2.381Z" fill="#F78E8E"/>
    <path d="M527.896 397.453c2.664-1.186 5.4-1.775 7.975-1.47 2.104.25 4.272 1.102 6.373 2.381m-14.348-.911c-5.263-9.415-18.352-33.986 1.288-59.008.773-.985 2.272-.987 3.136-.081 1.298 1.362 3.298 3.286 5.678 4.991.774.554 1.837.413 2.502-.267 12.366-12.645 12.644-9.706 12.452-8.547-.04.238-.077.476-.065.717 1.357 27.454 14.025 52.985-10.643 63.106m-14.348-.911c-3.91 1.742-6.513 4.225-9.374 7.606m23.722-6.695c2.375 1.445 4.664 3.435 6.674 5.713a35.106 35.106 0 0 1 2.479 3.157m0 0c3.125 4.488 5.068 9.551 4.698 13.676-.07.782-.232 1.572-.474 2.364m-4.224-16.04s19.643-38.493 46.824-35.096c1.222.152 1.919 1.427 1.465 2.572-1.33 3.358-4.002 9.975-6.523 15.419-.323.699-.232 1.532.306 2.082 4.764 4.864 11.51 4.151 15.638 3.062 1.575-.415 3.247.956 2.839 2.533-10.001 38.698-56.325 25.468-56.325 25.468m0 0c-.796 2.599-2.461 5.211-4.614 7.577m0 0s42.78-10.113 49.282 22.011c.143.708-.127 1.448-.741 1.827-2.161 1.336-7.965 4.218-17.352 3.825-1.831-.077-3.348 2.334-2.871 4.103 1.569 5.828-.47 12.601-1.571 15.589-.336.91-1.33 1.37-2.264 1.109-37.773-10.545-37.169-40.028-37.169-40.028m12.686-8.436c-3.488 3.831-8.257 7.013-12.686 8.436m0 0c-2.054.66-4.035.942-5.782.735-1.301-.155-2.711-.645-4.16-1.395m0 0s19.52 32.847 2.065 50.661c-.465.475-1.153.663-1.78.44-2.124-.755-7.17-3.082-10.977-9.061-.823-1.293-2.765-1.469-3.76-.303-4.409 5.169-8.778 7.469-10.841 8.341-.734.31-1.579.026-2.068-.603-28.181-36.233 19.414-55.745 19.414-55.745m7.947 6.27c-2.656-1.374-5.446-3.62-7.947-6.27m0 0c-2.38-2.521-4.498-5.408-5.991-8.256m0 0c-1.706-3.253-2.595-6.456-2.126-9.006.547-2.974 3.575-6.927 6.207-10.036m-4.081 19.042s-41.901 6.165-52.27-26.217c-.26-.813.05-1.708.777-2.155 1.994-1.225 6.239-3.595 10.861-4.719 1.927-.468 3.602-4.11 2.985-5.994-1.123-3.433-.775-6.919-.444-8.778a1.716 1.716 0 0 1 1.707-1.411c21.706-.034 40.465 30.232 40.465 30.232" stroke="#F78E8E" stroke-width="10"/>
    <path d="M421.394 589.461c-2.575-.305-5.311.284-7.975 1.47-3.909 1.742-6.512 4.226-9.374 7.606-2.631 3.109-5.659 7.062-6.206 10.036-.469 2.55.42 5.753 2.125 9.006 1.493 2.848 3.611 5.735 5.991 8.256 2.501 2.65 5.291 4.896 7.948 6.27 1.449.75 2.859 1.24 4.16 1.395 1.747.207 3.728-.075 5.781-.735 4.43-1.423 9.199-4.605 12.686-8.436 2.154-2.366 3.819-4.978 4.614-7.577.243-.792.404-1.582.474-2.364.371-4.125-1.572-9.188-4.698-13.676a34.941 34.941 0 0 0-2.478-3.156c-2.011-2.279-4.299-4.269-6.674-5.714-2.101-1.279-4.27-2.131-6.374-2.381Z" fill="#F78E8E"/>
    <path d="M413.419 590.931c2.664-1.186 5.4-1.775 7.975-1.47 2.104.25 4.273 1.102 6.374 2.381m-14.349-.911c-5.262-9.415-18.352-33.986 1.289-59.008.773-.985 2.272-.987 3.135-.081 1.298 1.362 3.298 3.286 5.679 4.991.773.554 1.837.413 2.502-.267 12.365-12.645 12.644-9.706 12.451-8.547a3.393 3.393 0 0 0-.065.717c1.358 27.454 14.025 52.985-10.642 63.106m-14.349-.911c-3.909 1.742-6.512 4.226-9.374 7.606m23.723-6.695c2.375 1.445 4.663 3.435 6.674 5.714a34.941 34.941 0 0 1 2.478 3.156m0 0c3.126 4.488 5.069 9.551 4.698 13.676-.07.782-.231 1.572-.474 2.364m-4.224-16.04s19.643-38.493 46.825-35.096c1.222.152 1.918 1.427 1.465 2.572-1.33 3.359-4.003 9.975-6.523 15.419-.324.699-.233 1.532.306 2.082 4.764 4.864 11.51 4.151 15.638 3.062 1.574-.415 3.246.957 2.839 2.533-10.001 38.698-56.326 25.468-56.326 25.468m0 0c-.795 2.599-2.46 5.211-4.614 7.577m0 0s42.781-10.113 49.283 22.011c.143.708-.128 1.448-.741 1.827-2.161 1.336-7.966 4.218-17.352 3.825-1.831-.077-3.348 2.334-2.872 4.103 1.569 5.828-.469 12.602-1.571 15.589-.335.91-1.329 1.37-2.264 1.109-37.773-10.545-37.169-40.028-37.169-40.028m12.686-8.436c-3.487 3.831-8.256 7.013-12.686 8.436m0 0c-2.053.66-4.034.942-5.781.735-1.301-.155-2.711-.645-4.16-1.395m0 0s19.52 32.847 2.065 50.661c-.466.475-1.153.663-1.78.44-2.125-.755-7.171-3.082-10.977-9.061-.824-1.293-2.766-1.469-3.76-.303-4.409 5.169-8.778 7.469-10.841 8.341-.734.31-1.579.026-2.069-.603-28.181-36.233 19.414-55.745 19.414-55.745m7.948 6.27c-2.657-1.374-5.447-3.62-7.948-6.27m0 0c-2.38-2.521-4.498-5.408-5.991-8.256m0 0c-1.705-3.253-2.594-6.456-2.125-9.006.547-2.974 3.575-6.927 6.206-10.036m-4.081 19.042s-41.9 6.165-52.269-26.217c-.261-.813.049-1.708.777-2.155 1.994-1.225 6.238-3.595 10.861-4.719 1.927-.468 3.602-4.11 2.985-5.994-1.123-3.432-.776-6.919-.444-8.777a1.716 1.716 0 0 1 1.707-1.412c21.705-.033 40.464 30.232 40.464 30.232" stroke="#F78E8E" stroke-width="10"/>
    <path d="M347.672 562.373c-2.884-1.664-6.41-2.354-10.155-2.302-5.495.076-9.824 1.689-14.912 4.229-4.68 2.337-10.253 5.469-12.404 8.701-1.845 2.772-2.417 7.002-2.051 11.705.32 4.116 1.358 8.595 2.89 12.774 1.61 4.394 3.766 8.457 6.205 11.423 1.331 1.619 2.746 2.911 4.203 3.752 1.957 1.128 4.437 1.799 7.195 2.06 5.947.563 13.185-.779 19.24-3.534 3.739-1.701 7.027-3.942 9.281-6.606a14.972 14.972 0 0 0 1.756-2.549c2.525-4.681 2.796-11.639 1.379-18.518a45.114 45.114 0 0 0-1.327-4.979c-1.219-3.706-2.913-7.213-4.984-10.121-1.832-2.572-3.959-4.676-6.316-6.035Z" fill="#FF9393"/>
    <path d="M337.517 560.071c3.745-.052 7.271.638 10.155 2.302 2.357 1.359 4.484 3.463 6.316 6.035m-16.471-8.337c-1.451-13.851-4.486-49.79 31.989-69.305 1.103-.59 2.488-.006 2.91 1.173.837 2.339 2.379 6.142 4.651 9.801.502.808 1.545 1.095 2.424.731 21.925-9.091 20.194-5.062 19.385-3.873a2.986 2.986 0 0 0-.347.631c-12.336 33.111-10.274 69.723-44.541 69.179m-16.471-8.337c-5.495.076-9.824 1.689-14.912 4.229m31.383 4.108c2.071 2.908 3.765 6.415 4.984 10.121a45.114 45.114 0 0 1 1.327 4.979m0 0c1.417 6.879 1.146 13.837-1.379 18.518a14.972 14.972 0 0 1-1.756 2.549m3.135-21.067s43.2-35.925 73.59-17.373c1.051.642 1.197 2.089.33 2.963-3.126 3.154-10.158 10.163-16.24 15.607-.574.513-.816 1.313-.553 2.036 3.27 9.001 12.736 11.389 18.128 12.012 1.618.187 2.598 2.117 1.623 3.422-31.374 42.008-80.013 2.4-80.013 2.4m0 0c-2.254 2.664-5.542 4.905-9.281 6.606m0 0s55.899 9.774 46.945 51.251c-.152.705-.691 1.282-1.403 1.401-3.076.513-12.142 1.237-24.066-4.878-1.631-.836-3.879.747-3.989 2.576-.513 8.557-7.406 16.504-10.224 19.415-.675.697-1.772.724-2.53.119-39.71-31.646-23.973-66.35-23.973-66.35m19.24-3.534c-6.055 2.755-13.293 4.097-19.24 3.534m0 0c-2.758-.261-5.238-.932-7.195-2.06-1.457-.841-2.872-2.133-4.203-3.752m0 0s6.448 48.949-23.49 60.943c-.617.247-1.324.15-1.82-.293-2.061-1.848-7.419-7.511-8.731-17.417-.202-1.519-1.912-2.444-3.272-1.737-8.58 4.459-15.488 4.852-18.257 4.79-.796-.017-1.461-.615-1.666-1.385-15.294-57.396 51.031-56.324 51.031-56.324m6.205 11.423c-2.439-2.966-4.595-7.029-6.205-11.423m0 0c-1.532-4.179-2.57-8.658-2.89-12.774m0 0c-.366-4.703.206-8.933 2.051-11.705 2.151-3.232 7.724-6.364 12.404-8.701m-14.455 20.406s-52.894-14.022-48.37-57.804c.088-.849.725-1.552 1.569-1.683 3.059-.474 10.615-1.347 17.458.238 1.931.447 4.683-2.062 4.639-4.044-.128-5.696 2.746-10.659 4.205-12.803a1.758 1.758 0 0 1 2.14-.623c25.933 10.67 32.814 56.313 32.814 56.313" stroke="#FF9393" stroke-width="10"/>
  </g>
</svg>