<svg width="68" height="68" viewBox="0 0 68 68" fill="none" xmlns="http://www.w3.org/2000/svg">
<path opacity="0.1" d="M21.8506 14.0576C32.4436 5.92365 45.9609 4.4343 52.9142 4.25489C54.6617 4.2098 55.9162 6.68606 55.1093 8.2368C53.996 10.3761 52.7738 12.9474 51.8842 14.8619C51.2754 16.1721 52.2311 17.6598 53.6759 17.6675L61.7432 17.7105C63.1821 17.7182 64.1015 19.1689 63.4044 20.4277C60.753 25.215 54.0497 35.7552 41.246 47.0635C31.2689 55.8754 16.8403 57.6518 15.557 57.7943C15.4888 57.8019 15.4305 57.8037 15.3619 57.8045C12.5279 57.8391 9.80223 59.8358 7.7886 62.5119C6.9535 63.6217 5.47382 63.6797 5.10482 62.3407C2.61452 53.3039 3.2673 25.8822 21.8506 14.0576Z" stroke="#FF9393" stroke-width="8"/>
</svg>