<svg width="666" height="813" viewBox="0 0 666 813" fill="none" xmlns="http://www.w3.org/2000/svg">
<g opacity="0.1">
<path d="M92.3238 309.137C-97.2705 452.392 -186.489 638.789 -209.834 693.797C-212.286 699.575 -206.469 705.183 -200.73 702.641C-142.983 677.068 63.5536 592.949 207.473 628.903M92.3238 309.137C236.066 347.08 420.024 371.23 420.024 371.23M92.3238 309.137C223.858 219.948 456.75 122.284 456.75 122.284" stroke="#D97D7D" stroke-width="29" stroke-linecap="round" stroke-linejoin="round"/>
<path d="M304.074 328.658C302.647 329.903 301.625 331.674 300.963 333.699C299.991 336.671 300.062 339.298 300.491 342.504C300.887 345.454 301.545 349.03 302.888 350.784C304.04 352.288 306.211 353.375 308.809 354.045C311.084 354.631 313.686 354.898 316.218 354.844C318.879 354.787 321.463 354.376 323.509 353.61C324.625 353.192 325.581 352.668 326.303 352.039C327.271 351.194 328.089 349.982 328.737 348.546C330.136 345.449 330.749 341.306 330.382 337.54C330.155 335.214 329.555 333.032 328.537 331.327C328.227 330.808 327.878 330.333 327.488 329.912C325.435 327.691 321.74 326.263 317.776 325.757C316.811 325.634 315.83 325.566 314.852 325.554C312.632 325.527 310.433 325.792 308.486 326.371C306.764 326.883 305.24 327.64 304.074 328.658Z" fill="#F28B8B"/>
<path d="M300.963 333.699C301.625 331.674 302.647 329.903 304.074 328.658C305.24 327.64 306.764 326.883 308.486 326.371M300.963 333.699C293.355 331.953 273.922 327.083 269.736 304.723C269.506 303.493 270.513 302.386 271.763 302.328C272.98 302.272 274.542 302.133 276.169 301.81C277.102 301.625 277.712 300.748 277.656 299.798C276.955 287.828 278.502 288.56 279.089 289.224C279.248 289.405 279.398 289.596 279.584 289.748C295.114 302.42 315.077 308.076 308.486 326.371M300.963 333.699C299.991 336.671 300.062 339.298 300.491 342.504M308.486 326.371C310.433 325.792 312.632 325.527 314.852 325.554C315.83 325.566 316.811 325.634 317.776 325.757M317.776 325.757C321.74 326.263 325.435 327.691 327.488 329.912C327.878 330.333 328.227 330.808 328.537 331.327M317.776 325.757C317.776 325.757 306.781 296.878 321.228 283.613C322.135 282.78 323.55 283.12 324.093 284.226C325.284 286.651 327.271 290.777 328.838 294.434C329.141 295.141 329.822 295.64 330.59 295.581C334.834 295.259 337.534 292.139 339.062 289.549C339.89 288.146 342.054 287.846 342.908 289.232C357.668 313.167 328.537 331.327 328.537 331.327M328.537 331.327C329.555 333.032 330.155 335.214 330.382 337.54M330.382 337.54C330.382 337.54 345.726 309.653 366.181 321.462C366.806 321.823 367.167 322.521 367.019 323.227C366.632 325.074 365.411 328.928 361.612 333.17C360.389 334.535 361.155 337.45 362.675 338.474C365.721 340.528 367.871 343.908 368.93 345.849C369.395 346.7 369.078 347.746 368.254 348.258C344.251 363.163 328.737 348.546 328.737 348.546M330.382 337.54C330.749 341.306 330.136 345.449 328.737 348.546M328.737 348.546C328.089 349.982 327.271 351.194 326.303 352.039C325.581 352.668 324.625 353.192 323.509 353.61M323.509 353.61C323.509 353.61 350.583 359.068 351.95 377.026C352.001 377.689 351.674 378.324 351.081 378.625C349.582 379.386 346.332 380.644 341.964 380.132C340.442 379.953 339 381.282 339.146 382.808C339.541 386.93 338.864 389.946 338.362 391.514C338.119 392.273 337.348 392.712 336.553 392.647C303.562 389.939 316.218 354.844 316.218 354.844M323.509 353.61C321.463 354.376 318.879 354.787 316.218 354.844M316.218 354.844C313.686 354.898 311.084 354.631 308.809 354.045M308.809 354.045C306.211 353.375 304.04 352.288 302.888 350.784C301.545 349.03 300.887 345.454 300.491 342.504M308.809 354.045C308.809 354.045 291.798 379.503 269.346 369.677C268.564 369.335 268.115 368.502 268.282 367.665C268.571 366.212 269.152 363.828 270.188 361.46C270.983 359.643 269.273 355.52 267.617 354.429C266.201 353.497 265.126 352.358 264.449 351.529C263.917 350.877 263.964 349.952 264.541 349.339C275.307 337.914 300.491 342.504 300.491 342.504" stroke="#F28B8B" stroke-width="10"/>
<path d="M82.1015 319.071C80.6413 320.345 79.5961 322.158 78.9185 324.229C77.9241 327.27 77.9959 329.959 78.4356 333.24C78.8401 336.258 79.5136 339.918 80.8881 341.713C82.067 343.251 84.2887 344.364 86.9476 345.05C89.275 345.65 91.9373 345.922 94.5283 345.867C97.2515 345.809 99.8958 345.388 101.99 344.604C103.132 344.176 104.11 343.641 104.848 342.997C105.839 342.132 106.676 340.892 107.34 339.423C108.771 336.253 109.398 332.014 109.022 328.16C108.79 325.78 108.177 323.547 107.134 321.803C106.817 321.271 106.46 320.786 106.062 320.355C103.96 318.081 100.179 316.62 96.1234 316.103C95.1354 315.977 94.1312 315.907 93.1309 315.895C90.8596 315.867 88.609 316.138 86.6168 316.731C84.8547 317.254 83.2947 318.029 82.1015 319.071Z" fill="#F28B8B"/>
<path d="M78.9185 324.229C79.5961 322.158 80.6413 320.345 82.1015 319.071C83.2947 318.029 84.8547 317.254 86.6168 316.731M78.9185 324.229C71.1264 322.442 51.2154 317.451 46.9533 294.523C46.7246 293.293 47.7329 292.186 48.9831 292.13C50.2449 292.074 51.8806 291.931 53.5847 291.59C54.5175 291.403 55.1266 290.528 55.0707 289.578C54.3456 277.249 55.9432 278.043 56.54 278.725C56.6984 278.906 56.8485 279.097 57.0348 279.249C72.9276 292.22 93.3624 298.007 86.6168 316.731M78.9185 324.229C77.9241 327.27 77.9959 329.959 78.4356 333.24M86.6168 316.731C88.609 316.138 90.8596 315.867 93.1309 315.895C94.1312 315.907 95.1354 315.977 96.1234 316.103M96.1234 316.103C100.179 316.62 103.96 318.081 106.062 320.355C106.46 320.786 106.817 321.271 107.134 321.803M96.1234 316.103C96.1234 316.103 84.8515 286.497 99.6962 272.94C100.606 272.109 102.02 272.45 102.563 273.555C103.782 276.036 105.838 280.304 107.454 284.076C107.757 284.784 108.438 285.282 109.206 285.226C113.609 284.905 116.393 281.644 117.952 278.971C118.772 277.565 120.934 277.265 121.793 278.648C137.008 303.179 107.134 321.803 107.134 321.803M107.134 321.803C108.177 323.547 108.79 325.78 109.022 328.16M109.022 328.16C109.022 328.16 124.736 299.602 145.679 311.721C146.304 312.082 146.666 312.781 146.519 313.487C146.127 315.38 144.869 319.382 140.898 323.78C139.67 325.14 140.438 328.039 141.967 329.048C145.156 331.155 147.4 334.696 148.488 336.697C148.951 337.55 148.633 338.595 147.81 339.107C123.229 354.394 107.34 339.423 107.34 339.423M109.022 328.16C109.398 332.014 108.771 336.253 107.34 339.423M107.34 339.423C106.676 340.892 105.839 342.132 104.848 342.997C104.11 343.641 103.132 344.176 101.99 344.604M101.99 344.604C101.99 344.604 129.719 350.195 131.095 368.591C131.145 369.254 130.819 369.889 130.227 370.191C128.694 370.972 125.327 372.287 120.796 371.734C119.274 371.549 117.833 372.878 117.983 374.403C118.406 378.687 117.697 381.813 117.179 383.42C116.935 384.178 116.163 384.618 115.369 384.553C81.5699 381.802 94.5283 345.867 94.5283 345.867M101.99 344.604C99.8958 345.388 97.2515 345.809 94.5283 345.867M94.5283 345.867C91.9373 345.922 89.275 345.65 86.9476 345.05M86.9476 345.05C84.2887 344.364 82.067 343.251 80.8881 341.713C79.5136 339.918 78.8401 336.258 78.4356 333.24M86.9476 345.05C86.9476 345.05 69.5249 371.123 46.5348 361.033C45.7529 360.69 45.3032 359.858 45.4692 359.02C45.7689 357.508 46.3815 354.983 47.4891 352.495C48.2955 350.684 46.5956 346.597 44.9257 345.527C43.3975 344.548 42.2445 343.325 41.5334 342.45C41.002 341.796 41.0494 340.872 41.626 340.258C52.6296 328.536 78.4356 333.24 78.4356 333.24" stroke="#F28B8B" stroke-width="10"/>
<path d="M431.595 98.2301C429.02 97.9247 426.284 98.5136 423.62 99.7003C419.71 101.442 417.107 103.925 414.246 107.306C411.614 110.415 408.586 114.368 408.039 117.341C407.57 119.892 408.459 123.095 410.165 126.348C411.658 129.196 413.776 132.082 416.156 134.604C418.657 137.254 421.447 139.5 424.103 140.874C425.553 141.624 426.962 142.114 428.263 142.268C430.01 142.476 431.991 142.194 434.045 141.534C438.474 140.111 443.243 136.929 446.731 133.098C448.884 130.732 450.549 128.119 451.345 125.521C451.587 124.729 451.749 123.939 451.819 123.157C452.189 119.032 450.247 113.969 447.121 109.48C446.36 108.387 445.528 107.328 444.642 106.324C442.632 104.046 440.343 102.056 437.968 100.611C435.867 99.3322 433.699 98.4796 431.595 98.2301Z" fill="#F78E8E"/>
<path d="M423.62 99.7003C426.284 98.5136 429.02 97.9247 431.595 98.2301C433.699 98.4796 435.867 99.3322 437.968 100.611M423.62 99.7003C418.357 90.2847 405.268 65.7141 424.908 40.6917C425.681 39.7073 427.18 39.7047 428.044 40.6107C429.342 41.9729 431.342 43.8972 433.723 45.6018C434.496 46.1556 435.56 46.0148 436.225 45.3347C448.59 32.6899 448.868 35.6285 448.676 36.7882C448.636 37.0255 448.599 37.2642 448.611 37.5045C449.968 64.9593 462.636 90.4896 437.968 100.611M423.62 99.7003C419.71 101.442 417.107 103.925 414.246 107.306M437.968 100.611C440.343 102.056 442.632 104.046 444.642 106.324C445.528 107.328 446.36 108.387 447.121 109.48M447.121 109.48C450.247 113.969 452.189 119.032 451.819 123.157C451.749 123.939 451.587 124.729 451.345 125.521M447.121 109.48C447.121 109.48 466.764 70.988 493.945 74.3845C495.167 74.5372 495.864 75.8118 495.41 76.9569C494.08 80.3154 491.408 86.9323 488.887 92.3758C488.564 93.0745 488.655 93.9081 489.194 94.4582C493.957 99.3214 500.703 98.6092 504.831 97.5201C506.406 97.1046 508.078 98.4763 507.67 100.053C497.669 138.751 451.345 125.521 451.345 125.521M451.345 125.521C450.549 128.119 448.884 130.732 446.731 133.098M446.731 133.098C446.731 133.098 489.512 122.985 496.013 155.109C496.157 155.817 495.886 156.557 495.272 156.936C493.111 158.272 487.307 161.154 477.92 160.761C476.089 160.684 474.573 163.095 475.049 164.864C476.618 170.691 474.579 177.465 473.478 180.452C473.142 181.363 472.148 181.823 471.214 181.562C433.441 171.017 434.045 141.534 434.045 141.534M446.731 133.098C443.243 136.929 438.474 140.111 434.045 141.534M434.045 141.534C431.991 142.194 430.01 142.476 428.263 142.268C426.962 142.114 425.553 141.624 424.103 140.874M424.103 140.874C424.103 140.874 443.623 173.721 426.168 191.535C425.703 192.01 425.015 192.198 424.389 191.975C422.264 191.22 417.218 188.893 413.411 182.914C412.588 181.621 410.646 181.445 409.651 182.611C405.242 187.78 400.873 190.08 398.81 190.952C398.076 191.262 397.231 190.978 396.742 190.349C368.561 154.116 416.156 134.604 416.156 134.604M424.103 140.874C421.447 139.5 418.657 137.254 416.156 134.604M416.156 134.604C413.776 132.082 411.658 129.196 410.165 126.348M410.165 126.348C408.459 123.095 407.57 119.892 408.039 117.341C408.586 114.368 411.614 110.415 414.246 107.306M410.165 126.348C410.165 126.348 368.264 132.513 357.895 100.131C357.635 99.3178 357.945 98.4233 358.672 97.9763C360.666 96.7513 364.911 94.3805 369.533 93.2572C371.46 92.789 373.135 89.1473 372.518 87.2627C371.395 83.8304 371.743 80.3436 372.074 78.4853C372.222 77.6559 372.939 77.075 373.782 77.0737C395.487 77.0403 414.246 107.306 414.246 107.306" stroke="#F78E8E" stroke-width="10"/>
<path d="M-32.8459 416.02C-35.4208 415.714 -38.1568 416.303 -40.8205 417.49C-44.7302 419.232 -47.3333 421.715 -50.1946 425.096C-52.8265 428.205 -55.8541 432.157 -56.4012 435.131C-56.8704 437.682 -55.9811 440.885 -54.2757 444.138C-52.7828 446.986 -50.6646 449.872 -48.2849 452.393C-45.7838 455.043 -42.9938 457.29 -40.3373 458.664C-38.8879 459.414 -37.4783 459.904 -36.177 460.058C-34.4304 460.265 -32.4494 459.984 -30.3956 459.324C-25.966 457.901 -21.1974 454.719 -17.7098 450.888C-15.5563 448.522 -13.8912 445.909 -13.0957 443.31C-12.8535 442.519 -12.6919 441.728 -12.6217 440.947C-12.2514 436.821 -14.1939 431.759 -17.3195 427.27C-18.0809 426.177 -18.9126 425.117 -19.7981 424.114C-21.8088 421.836 -24.0973 419.846 -26.4724 418.4C-28.5733 417.122 -30.7419 416.269 -32.8459 416.02Z" fill="#F78E8E"/>
<path d="M-40.8205 417.49C-38.1568 416.303 -35.4208 415.714 -32.8459 416.02C-30.7419 416.269 -28.5733 417.122 -26.4724 418.4M-40.8205 417.49C-46.083 408.074 -59.1729 383.504 -39.532 358.481C-38.7594 357.497 -37.26 357.494 -36.3967 358.4C-35.0986 359.763 -33.0988 361.687 -30.718 363.392C-29.9446 363.945 -28.8809 363.805 -28.2159 363.124C-15.8508 350.48 -15.5723 353.418 -15.7648 354.578C-15.8042 354.815 -15.8415 355.054 -15.8297 355.294C-14.4721 382.749 -1.80462 408.279 -26.4724 418.4M-40.8205 417.49C-44.7302 419.232 -47.3333 421.715 -50.1946 425.096M-26.4724 418.4C-24.0973 419.846 -21.8088 421.836 -19.7981 424.114C-18.9126 425.117 -18.0809 426.177 -17.3195 427.27M-17.3195 427.27C-14.1939 431.759 -12.2514 436.821 -12.6217 440.947C-12.6919 441.728 -12.8535 442.519 -13.0957 443.31M-17.3195 427.27C-17.3195 427.27 2.32328 388.778 29.5048 392.174C30.727 392.327 31.4232 393.602 30.9698 394.747C29.6399 398.105 26.9673 404.722 24.4467 410.166C24.1231 410.864 24.2143 411.698 24.7531 412.248C29.5166 417.111 36.2628 416.399 40.3907 415.31C41.9654 414.894 43.6374 416.266 43.2299 417.843C33.2288 456.541 -13.0957 443.31 -13.0957 443.31M-13.0957 443.31C-13.8912 445.909 -15.5563 448.522 -17.7098 450.888M-17.7098 450.888C-17.7098 450.888 25.071 440.775 31.5729 472.899C31.7161 473.606 31.4453 474.347 30.8315 474.726C28.6708 476.062 22.8661 478.944 13.4797 478.551C11.649 478.474 10.1321 480.884 10.6085 482.654C12.1774 488.481 10.1385 495.255 9.03721 498.242C8.7016 499.152 7.70788 499.613 6.77342 499.352C-30.9996 488.807 -30.3956 459.324 -30.3956 459.324M-17.7098 450.888C-21.1974 454.719 -25.966 457.901 -30.3956 459.324M-30.3956 459.324C-32.4494 459.984 -34.4304 460.265 -36.177 460.058C-37.4783 459.904 -38.8879 459.414 -40.3373 458.664M-40.3373 458.664C-40.3373 458.664 -20.8175 491.51 -38.2725 509.325C-38.7378 509.8 -39.4255 509.988 -40.0519 509.765C-42.1766 509.01 -47.2225 506.682 -51.0294 500.704C-51.8526 499.411 -53.7945 499.234 -54.7892 500.401C-59.198 505.57 -63.5673 507.869 -65.6303 508.741C-66.3644 509.052 -67.2094 508.768 -67.6987 508.139C-95.8797 471.905 -48.2849 452.393 -48.2849 452.393M-40.3373 458.664C-42.9938 457.29 -45.7838 455.043 -48.2849 452.393M-48.2849 452.393C-50.6646 449.872 -52.7828 446.986 -54.2757 444.138M-54.2757 444.138C-55.9811 440.885 -56.8704 437.682 -56.4012 435.131C-55.8541 432.157 -52.8265 428.205 -50.1946 425.096M-54.2757 444.138C-54.2757 444.138 -96.1764 450.303 -106.545 417.921C-106.806 417.108 -106.496 416.213 -105.768 415.766C-103.774 414.541 -99.5296 412.17 -94.9074 411.047C-92.9805 410.579 -91.3053 406.937 -91.9221 405.052C-93.0455 401.62 -92.6976 398.133 -92.3664 396.275C-92.2185 395.446 -91.5015 394.865 -90.6589 394.863C-68.9536 394.83 -50.1946 425.096 -50.1946 425.096" stroke="#F78E8E" stroke-width="10"/>
<path d="M265.795 193.022C264.335 194.297 263.29 196.109 262.612 198.181C261.618 201.222 261.69 203.91 262.129 207.192C262.534 210.21 263.207 213.87 264.582 215.664C265.761 217.203 267.982 218.316 270.641 219.001C272.969 219.601 275.631 219.874 278.222 219.819C280.945 219.76 283.589 219.34 285.683 218.556C286.825 218.128 287.804 217.592 288.542 216.948C289.532 216.084 290.369 214.844 291.033 213.375C292.465 210.205 293.091 205.966 292.716 202.111C292.484 199.731 291.87 197.498 290.828 195.754C290.511 195.223 290.153 194.737 289.755 194.307C287.654 192.033 283.873 190.572 279.817 190.054C278.829 189.928 277.825 189.858 276.825 189.846C274.553 189.819 272.303 190.09 270.31 190.682C268.548 191.206 266.988 191.981 265.795 193.022Z" fill="#F28B8B"/>
<path d="M262.612 198.181C263.29 196.109 264.335 194.297 265.795 193.022C266.988 191.981 268.548 191.206 270.31 190.682M262.612 198.181C254.82 196.394 234.909 191.403 230.647 168.475C230.418 167.244 231.426 166.137 232.677 166.082C233.939 166.026 235.574 165.883 237.278 165.542C238.211 165.355 238.82 164.48 238.764 163.53C238.039 151.201 239.637 151.995 240.234 152.677C240.392 152.858 240.542 153.049 240.728 153.201C256.621 166.172 277.056 171.959 270.31 190.682M262.612 198.181C261.618 201.222 261.69 203.91 262.129 207.192M270.31 190.682C272.303 190.09 274.553 189.819 276.825 189.846C277.825 189.858 278.829 189.928 279.817 190.054M279.817 190.054C283.873 190.572 287.654 192.033 289.755 194.307C290.153 194.737 290.511 195.223 290.828 195.754M279.817 190.054C279.817 190.054 268.545 160.448 283.39 146.891C284.299 146.061 285.713 146.401 286.257 147.507C287.476 149.988 289.532 154.255 291.148 158.028C291.451 158.736 292.132 159.234 292.9 159.178C297.303 158.857 300.087 155.595 301.645 152.923C302.466 151.516 304.628 151.216 305.486 152.6C320.702 177.131 290.828 195.754 290.828 195.754M290.828 195.754C291.87 197.498 292.484 199.731 292.716 202.111M292.716 202.111C292.716 202.111 308.429 173.554 329.373 185.673C329.997 186.034 330.359 186.732 330.213 187.439C329.82 189.331 328.563 193.334 324.592 197.731C323.364 199.091 324.131 201.99 325.66 203C328.85 205.106 331.093 208.647 332.181 210.649C332.645 211.501 332.327 212.547 331.503 213.059C306.923 228.345 291.033 213.375 291.033 213.375M292.716 202.111C293.091 205.966 292.465 210.205 291.033 213.375M291.033 213.375C290.369 214.844 289.532 216.084 288.542 216.948C287.804 217.592 286.825 218.128 285.683 218.556M285.683 218.556C285.683 218.556 313.412 224.147 314.789 242.542C314.839 243.205 314.513 243.84 313.921 244.142C312.387 244.924 309.021 246.238 304.489 245.686C302.968 245.501 301.526 246.83 301.677 248.355C302.099 252.638 301.391 255.765 300.873 257.371C300.628 258.13 299.857 258.569 299.062 258.505C265.263 255.753 278.222 219.819 278.222 219.819M285.683 218.556C283.589 219.34 280.945 219.76 278.222 219.819M278.222 219.819C275.631 219.874 272.969 219.601 270.641 219.001M270.641 219.001C267.982 218.316 265.761 217.203 264.582 215.664C263.207 213.87 262.534 210.21 262.129 207.192M270.641 219.001C270.641 219.001 253.219 245.075 230.228 234.984C229.447 234.641 228.997 233.809 229.163 232.972C229.462 231.46 230.075 228.935 231.183 226.447C231.989 224.635 230.289 220.548 228.619 219.479C227.091 218.5 225.938 217.276 225.227 216.401C224.696 215.748 224.743 214.824 225.32 214.21C236.323 202.488 262.129 207.192 262.129 207.192" stroke="#F28B8B" stroke-width="10"/>
<path d="M82.1015 319.071C80.6413 320.345 79.5961 322.158 78.9185 324.229C77.9241 327.27 77.9959 329.959 78.4356 333.24C78.8401 336.258 79.5136 339.918 80.8881 341.713C82.067 343.251 84.2887 344.364 86.9476 345.05C89.275 345.65 91.9373 345.922 94.5283 345.867C97.2515 345.809 99.8958 345.388 101.99 344.604C103.132 344.176 104.11 343.641 104.848 342.997C105.839 342.132 106.676 340.892 107.34 339.423C108.771 336.253 109.398 332.014 109.022 328.16C108.79 325.78 108.177 323.547 107.134 321.803C106.817 321.271 106.46 320.786 106.062 320.355C103.96 318.081 100.179 316.62 96.1234 316.103C95.1354 315.977 94.1312 315.907 93.1309 315.895C90.8596 315.867 88.609 316.138 86.6168 316.731C84.8547 317.254 83.2947 318.029 82.1015 319.071Z" fill="#F28B8B"/>
<path d="M78.9185 324.229C79.5961 322.158 80.6413 320.345 82.1015 319.071C83.2947 318.029 84.8547 317.254 86.6168 316.731M78.9185 324.229C71.1264 322.442 51.2154 317.451 46.9533 294.523C46.7246 293.293 47.7329 292.186 48.9831 292.13C50.2449 292.074 51.8806 291.931 53.5847 291.59C54.5175 291.403 55.1266 290.528 55.0707 289.578C54.3456 277.249 55.9432 278.043 56.54 278.725C56.6984 278.906 56.8485 279.097 57.0348 279.249C72.9276 292.22 93.3624 298.007 86.6168 316.731M78.9185 324.229C77.9241 327.27 77.9959 329.959 78.4356 333.24M86.6168 316.731C88.609 316.138 90.8596 315.867 93.1309 315.895C94.1312 315.907 95.1354 315.977 96.1234 316.103M96.1234 316.103C100.179 316.62 103.96 318.081 106.062 320.355C106.46 320.786 106.817 321.271 107.134 321.803M96.1234 316.103C96.1234 316.103 84.8515 286.497 99.6962 272.94C100.606 272.109 102.02 272.45 102.563 273.555C103.782 276.036 105.838 280.304 107.454 284.076C107.757 284.784 108.438 285.282 109.206 285.226C113.609 284.905 116.393 281.644 117.952 278.971C118.772 277.565 120.934 277.265 121.793 278.648C137.008 303.179 107.134 321.803 107.134 321.803M107.134 321.803C108.177 323.547 108.79 325.78 109.022 328.16M109.022 328.16C109.022 328.16 124.736 299.602 145.679 311.721C146.304 312.082 146.666 312.781 146.519 313.487C146.127 315.38 144.869 319.382 140.898 323.78C139.67 325.14 140.438 328.039 141.967 329.048C145.156 331.155 147.4 334.696 148.488 336.697C148.951 337.55 148.633 338.595 147.81 339.107C123.229 354.394 107.34 339.423 107.34 339.423M109.022 328.16C109.398 332.014 108.771 336.253 107.34 339.423M107.34 339.423C106.676 340.892 105.839 342.132 104.848 342.997C104.11 343.641 103.132 344.176 101.99 344.604M101.99 344.604C101.99 344.604 129.719 350.195 131.095 368.591C131.145 369.254 130.819 369.889 130.227 370.191C128.694 370.972 125.327 372.287 120.796 371.734C119.274 371.549 117.833 372.878 117.983 374.403C118.406 378.687 117.697 381.813 117.179 383.42C116.935 384.178 116.163 384.618 115.369 384.553C81.5699 381.802 94.5283 345.867 94.5283 345.867M101.99 344.604C99.8958 345.388 97.2515 345.809 94.5283 345.867M94.5283 345.867C91.9373 345.922 89.275 345.65 86.9476 345.05M86.9476 345.05C84.2887 344.364 82.067 343.251 80.8881 341.713C79.5136 339.918 78.8401 336.258 78.4356 333.24M86.9476 345.05C86.9476 345.05 69.5249 371.123 46.5348 361.033C45.7529 360.69 45.3032 359.858 45.4692 359.02C45.7689 357.508 46.3815 354.983 47.4891 352.495C48.2955 350.684 46.5956 346.597 44.9257 345.527C43.3975 344.548 42.2445 343.325 41.5334 342.45C41.002 341.796 41.0494 340.872 41.626 340.258C52.6296 328.536 78.4356 333.24 78.4356 333.24" stroke="#F28B8B" stroke-width="10"/>
<path d="M431.748 340C428.864 338.336 425.338 337.646 421.593 337.698C416.098 337.774 411.769 339.387 406.681 341.928C402.002 344.265 396.428 347.396 394.277 350.629C392.432 353.401 391.86 357.631 392.226 362.333C392.546 366.449 393.585 370.928 395.116 375.108C396.727 379.501 398.882 383.564 401.321 386.531C402.652 388.149 404.067 389.441 405.525 390.282C407.481 391.411 409.961 392.081 412.719 392.342C418.666 392.905 425.905 391.564 431.959 388.808C435.698 387.107 438.986 384.867 441.24 382.202C441.927 381.391 442.517 380.54 442.996 379.653C445.521 374.972 445.792 368.015 444.375 361.136C444.03 359.46 443.585 357.789 443.048 356.157C441.829 352.45 440.135 348.944 438.064 346.036C436.232 343.463 434.105 341.359 431.748 340Z" fill="#FF9393"/>
<path d="M421.593 337.698C425.338 337.646 428.864 338.336 431.748 340C434.105 341.359 436.232 343.463 438.064 346.036M421.593 337.698C420.142 323.847 417.107 287.908 453.582 268.393C454.685 267.803 456.07 268.388 456.492 269.566C457.329 271.906 458.871 275.709 461.143 279.368C461.645 280.176 462.688 280.462 463.567 280.098C485.492 271.008 483.761 275.037 482.952 276.226C482.816 276.425 482.689 276.631 482.605 276.856C470.269 309.968 472.331 346.58 438.064 346.036M421.593 337.698C416.098 337.774 411.769 339.387 406.681 341.928M438.064 346.036C440.135 348.944 441.829 352.45 443.048 356.157C443.585 357.789 444.03 359.46 444.375 361.136M444.375 361.136C445.792 368.015 445.521 374.972 442.996 379.653C442.517 380.54 441.927 381.391 441.24 382.202M444.375 361.136C444.375 361.136 487.575 325.211 517.965 343.763C519.016 344.404 519.162 345.851 518.295 346.726C515.17 349.88 508.137 356.888 502.055 362.332C501.481 362.846 501.239 363.645 501.502 364.369C504.772 373.37 514.238 375.758 519.63 376.38C521.248 376.567 522.228 378.498 521.253 379.802C489.879 421.811 441.24 382.202 441.24 382.202M441.24 382.202C438.986 384.867 435.698 387.107 431.959 388.808M431.959 388.808C431.959 388.808 487.858 398.582 478.904 440.059C478.752 440.764 478.213 441.341 477.501 441.46C474.425 441.973 465.359 442.698 453.435 436.583C451.804 435.747 449.556 437.329 449.447 439.158C448.933 447.716 442.04 455.662 439.222 458.573C438.547 459.27 437.451 459.297 436.692 458.693C396.982 427.047 412.719 392.342 412.719 392.342M431.959 388.808C425.905 391.564 418.666 392.905 412.719 392.342M412.719 392.342C409.961 392.081 407.481 391.411 405.525 390.282C404.067 389.441 402.652 388.149 401.321 386.531M401.321 386.531C401.321 386.531 407.769 435.48 377.831 447.473C377.214 447.721 376.507 447.624 376.012 447.18C373.95 445.332 368.593 439.67 367.28 429.764C367.078 428.244 365.368 427.319 364.008 428.026C355.428 432.486 348.52 432.878 345.752 432.817C344.955 432.799 344.29 432.201 344.085 431.431C328.791 374.035 395.116 375.108 395.116 375.108M401.321 386.531C398.882 383.564 396.727 379.501 395.116 375.108M395.116 375.108C393.585 370.928 392.546 366.449 392.226 362.333M392.226 362.333C391.86 357.631 392.432 353.401 394.277 350.629C396.428 347.396 402.002 344.265 406.681 341.928M392.226 362.333C392.226 362.333 339.333 348.311 343.856 304.53C343.944 303.681 344.581 302.977 345.425 302.846C348.484 302.372 356.04 301.5 362.883 303.084C364.815 303.532 367.566 301.023 367.522 299.04C367.394 293.345 370.268 288.382 371.728 286.237C372.202 285.541 373.088 285.293 373.867 285.614C399.8 296.285 406.681 341.928 406.681 341.928" stroke="#FF9393" stroke-width="10"/>
<path d="M372.259 130.271C369.375 128.607 365.849 127.917 362.105 127.969C356.609 128.045 352.28 129.658 347.193 132.199C342.513 134.536 336.939 137.667 334.788 140.899C332.943 143.672 332.371 147.902 332.737 152.604C333.057 156.72 334.096 161.199 335.628 165.379C337.238 169.772 339.393 173.835 341.832 176.802C343.163 178.42 344.578 179.712 346.036 180.553C347.992 181.681 350.472 182.352 353.23 182.613C359.178 183.176 366.416 181.835 372.471 179.079C376.209 177.378 379.497 175.137 381.751 172.473C382.438 171.662 383.029 170.811 383.507 169.924C386.032 165.243 386.303 158.285 384.887 151.407C384.542 149.731 384.096 148.06 383.559 146.428C382.34 142.721 380.647 139.215 378.575 136.307C376.744 133.734 374.616 131.63 372.259 130.271Z" fill="#FF9393"/>
<path d="M362.105 127.969C365.849 127.917 369.375 128.607 372.259 130.271C374.616 131.63 376.744 133.734 378.575 136.307M362.105 127.969C360.653 114.118 357.619 78.179 394.093 58.6643C395.196 58.074 396.581 58.6587 397.003 59.8369C397.84 62.1767 399.382 65.9796 401.654 69.6386C402.156 70.4467 403.199 70.7331 404.078 70.3688C426.003 61.2785 424.273 65.3078 423.463 66.4967C423.328 66.6955 423.2 66.9019 423.116 67.1273C410.78 100.239 412.842 136.851 378.575 136.307M362.105 127.969C356.609 128.045 352.28 129.658 347.193 132.199M378.575 136.307C380.647 139.215 382.34 142.721 383.559 146.428C384.096 148.06 384.542 149.731 384.887 151.407M384.887 151.407C386.303 158.285 386.032 165.243 383.507 169.924C383.029 170.811 382.438 171.662 381.751 172.473M384.887 151.407C384.887 151.407 428.087 115.482 458.476 134.033C459.527 134.675 459.673 136.122 458.806 136.997C455.681 140.15 448.649 147.159 442.566 152.603C441.993 153.117 441.75 153.916 442.013 154.64C445.283 163.641 454.749 166.029 460.142 166.651C461.759 166.838 462.739 168.769 461.764 170.073C430.39 212.082 381.751 172.473 381.751 172.473M381.751 172.473C379.497 175.137 376.209 177.378 372.471 179.079M372.471 179.079C372.471 179.079 428.369 188.853 419.415 230.33C419.263 231.035 418.724 231.612 418.012 231.731C414.936 232.244 405.87 232.968 393.946 226.854C392.315 226.017 390.067 227.6 389.958 229.429C389.445 237.987 382.551 245.933 379.733 248.844C379.058 249.541 377.962 249.568 377.203 248.964C337.493 217.317 353.23 182.613 353.23 182.613M372.471 179.079C366.416 181.835 359.178 183.176 353.23 182.613M353.23 182.613C350.472 182.352 347.992 181.681 346.036 180.553C344.578 179.712 343.163 178.42 341.832 176.802M341.832 176.802C341.832 176.802 348.28 225.751 318.342 237.744C317.725 237.992 317.018 237.895 316.523 237.451C314.461 235.603 309.104 229.941 307.791 220.034C307.59 218.515 305.88 217.59 304.52 218.297C295.939 222.757 289.031 223.149 286.263 223.088C285.466 223.07 284.801 222.472 284.596 221.702C269.302 164.306 335.628 165.379 335.628 165.379M341.832 176.802C339.393 173.835 337.238 169.772 335.628 165.379M335.628 165.379C334.096 161.199 333.057 156.72 332.737 152.604M332.737 152.604C332.371 147.902 332.943 143.672 334.788 140.899C336.939 137.667 342.513 134.536 347.193 132.199M332.737 152.604C332.737 152.604 279.844 138.582 284.367 94.8008C284.455 93.9515 285.092 93.248 285.936 93.1173C288.995 92.6433 296.551 91.7707 303.394 93.3551C305.326 93.8025 308.077 91.2934 308.033 89.3109C307.906 83.6156 310.779 78.6524 312.239 76.5081C312.713 75.8117 313.599 75.5644 314.378 75.885C340.311 86.5556 347.193 132.199 347.193 132.199" stroke="#FF9393" stroke-width="10"/>
<path d="M142.167 206.269C139.283 204.606 135.757 203.916 132.013 203.967C126.517 204.044 122.188 205.657 117.101 208.197C112.421 210.534 106.847 213.666 104.696 216.898C102.851 219.67 102.279 223.9 102.645 228.603C102.965 232.719 104.004 237.197 105.536 241.377C107.146 245.771 109.301 249.834 111.74 252.8C113.071 254.419 114.486 255.711 115.944 256.551C117.9 257.68 120.38 258.35 123.138 258.611C129.086 259.174 136.324 257.833 142.379 255.078C146.117 253.377 149.405 251.136 151.659 248.472C152.346 247.66 152.937 246.81 153.415 245.923C155.94 241.242 156.211 234.284 154.795 227.405C154.45 225.73 154.004 224.059 153.467 222.426C152.248 218.72 150.555 215.213 148.483 212.305C146.652 209.733 144.524 207.629 142.167 206.269Z" fill="#FF9393"/>
<path d="M132.013 203.967C135.757 203.916 139.283 204.606 142.167 206.269C144.524 207.629 146.652 209.733 148.483 212.305M132.013 203.967C130.561 190.117 127.527 154.178 164.001 134.663C165.104 134.073 166.489 134.657 166.911 135.835C167.748 138.175 169.29 141.978 171.562 145.637C172.064 146.445 173.107 146.732 173.986 146.367C195.911 137.277 194.181 141.306 193.371 142.495C193.236 142.694 193.108 142.901 193.024 143.126C180.688 176.237 182.75 212.849 148.483 212.305M132.013 203.967C126.517 204.044 122.188 205.657 117.101 208.197M148.483 212.305C150.555 215.213 152.248 218.72 153.467 222.426C154.004 224.059 154.45 225.73 154.795 227.405M154.795 227.405C156.211 234.284 155.94 241.242 153.415 245.923C152.937 246.81 152.346 247.66 151.659 248.472M154.795 227.405C154.795 227.405 197.995 191.48 228.384 210.032C229.435 210.674 229.581 212.121 228.714 212.995C225.589 216.149 218.557 223.158 212.474 228.602C211.901 229.115 211.658 229.915 211.921 230.638C215.191 239.639 224.657 242.027 230.05 242.65C231.667 242.836 232.647 244.767 231.672 246.072C200.298 288.08 151.659 248.472 151.659 248.472M151.659 248.472C149.405 251.136 146.117 253.377 142.379 255.078M142.379 255.078C142.379 255.078 198.277 264.852 189.323 306.329C189.171 307.034 188.632 307.611 187.92 307.729C184.844 308.243 175.778 308.967 163.854 302.852C162.223 302.016 159.975 303.599 159.866 305.428C159.353 313.985 152.459 321.932 149.641 324.843C148.966 325.54 147.87 325.567 147.111 324.962C107.401 293.316 123.138 258.611 123.138 258.611M142.379 255.078C136.324 257.833 129.086 259.174 123.138 258.611M123.138 258.611C120.38 258.35 117.9 257.68 115.944 256.551C114.486 255.711 113.071 254.419 111.74 252.8M111.74 252.8C111.74 252.8 118.188 301.749 88.2505 313.743C87.6333 313.99 86.9258 313.893 86.4307 313.45C84.3693 311.602 79.0117 305.939 77.6989 296.033C77.4975 294.514 75.7876 293.589 74.4276 294.296C65.8468 298.755 58.9389 299.148 56.1707 299.086C55.3739 299.069 54.709 298.471 54.5038 297.7C39.2099 240.305 105.536 241.377 105.536 241.377M111.74 252.8C109.301 249.834 107.146 245.771 105.536 241.377M105.536 241.377C104.004 237.197 102.965 232.719 102.645 228.603M102.645 228.603C102.279 223.9 102.851 219.67 104.696 216.898C106.847 213.666 112.421 210.534 117.101 208.197M102.645 228.603C102.645 228.603 49.7517 214.58 54.2752 170.799C54.3629 169.95 55.0001 169.247 55.8438 169.116C58.9034 168.642 66.4594 167.769 73.3019 169.354C75.2337 169.801 77.9853 167.292 77.941 165.31C77.8136 159.614 80.6868 154.651 82.1467 152.507C82.6208 151.81 83.5071 151.563 84.2863 151.884C110.219 162.554 117.101 208.197 117.101 208.197" stroke="#FF9393" stroke-width="10"/>
<path d="M285.87 395.983C283.296 395.678 280.56 396.267 277.896 397.453C273.986 399.195 271.383 401.678 268.522 405.059C265.89 408.168 262.862 412.121 262.315 415.094C261.846 417.645 262.735 420.848 264.441 424.101C265.934 426.949 268.052 429.836 270.432 432.357C272.933 435.007 275.723 437.253 278.379 438.627C279.828 439.377 281.238 439.867 282.539 440.021C284.286 440.229 286.267 439.947 288.321 439.287C292.75 437.864 297.519 434.682 301.007 430.851C303.16 428.485 304.825 425.872 305.621 423.274C305.863 422.482 306.025 421.692 306.095 420.91C306.465 416.785 304.522 411.722 301.397 407.233C300.635 406.14 299.804 405.081 298.918 404.077C296.908 401.799 294.619 399.809 292.244 398.364C290.143 397.085 287.974 396.233 285.87 395.983Z" fill="#F78E8E"/>
<path d="M277.896 397.453C280.56 396.267 283.296 395.678 285.87 395.983C287.974 396.233 290.143 397.085 292.244 398.364M277.896 397.453C272.633 388.038 259.543 363.467 279.184 338.445C279.957 337.46 281.456 337.458 282.32 338.364C283.618 339.726 285.618 341.65 287.998 343.355C288.772 343.909 289.835 343.768 290.5 343.088C302.866 330.443 303.144 333.382 302.952 334.541C302.912 334.779 302.875 335.017 302.887 335.258C304.244 362.712 316.912 388.243 292.244 398.364M277.896 397.453C273.986 399.195 271.383 401.678 268.522 405.059M292.244 398.364C294.619 399.809 296.908 401.799 298.918 404.077C299.804 405.081 300.635 406.14 301.397 407.233M301.397 407.233C304.522 411.722 306.465 416.785 306.095 420.91C306.025 421.692 305.863 422.482 305.621 423.274M301.397 407.233C301.397 407.233 321.04 368.741 348.221 372.138C349.443 372.29 350.14 373.565 349.686 374.71C348.356 378.068 345.684 384.685 343.163 390.129C342.84 390.828 342.931 391.661 343.469 392.211C348.233 397.074 354.979 396.362 359.107 395.273C360.682 394.858 362.354 396.229 361.946 397.806C351.945 436.504 305.621 423.274 305.621 423.274M305.621 423.274C304.825 425.872 303.16 428.485 301.007 430.851M301.007 430.851C301.007 430.851 343.787 420.738 350.289 452.862C350.432 453.57 350.162 454.31 349.548 454.689C347.387 456.025 341.582 458.907 332.196 458.514C330.365 458.437 328.848 460.848 329.325 462.617C330.894 468.444 328.855 475.218 327.754 478.205C327.418 479.116 326.424 479.576 325.49 479.315C287.717 468.77 288.321 439.287 288.321 439.287M301.007 430.851C297.519 434.682 292.75 437.864 288.321 439.287M288.321 439.287C286.267 439.947 284.286 440.229 282.539 440.021C281.238 439.867 279.828 439.377 278.379 438.627M278.379 438.627C278.379 438.627 297.899 471.474 280.444 489.288C279.979 489.763 279.291 489.951 278.664 489.728C276.54 488.973 271.494 486.646 267.687 480.667C266.864 479.374 264.922 479.198 263.927 480.364C259.518 485.533 255.149 487.833 253.086 488.705C252.352 489.015 251.507 488.731 251.018 488.102C222.837 451.869 270.432 432.357 270.432 432.357M278.379 438.627C275.723 437.253 272.933 435.007 270.432 432.357M270.432 432.357C268.052 429.836 265.934 426.949 264.441 424.101M264.441 424.101C262.735 420.848 261.846 417.645 262.315 415.094C262.862 412.121 265.89 408.168 268.522 405.059M264.441 424.101C264.441 424.101 222.54 430.266 212.171 397.884C211.911 397.071 212.221 396.176 212.948 395.729C214.942 394.504 219.187 392.134 223.809 391.01C225.736 390.542 227.411 386.9 226.794 385.016C225.671 381.583 226.019 378.097 226.35 376.238C226.498 375.409 227.215 374.828 228.057 374.827C249.763 374.793 268.522 405.059 268.522 405.059" stroke="#F78E8E" stroke-width="10"/>
<path d="M171.394 589.461C168.819 589.156 166.083 589.745 163.42 590.931C159.51 592.673 156.907 595.156 154.045 598.537C151.414 601.646 148.386 605.599 147.839 608.573C147.37 611.123 148.259 614.326 149.964 617.579C151.457 620.427 153.575 623.314 155.955 625.835C158.456 628.485 161.246 630.731 163.903 632.105C165.352 632.855 166.762 633.345 168.063 633.5C169.81 633.707 171.791 633.425 173.844 632.765C178.274 631.342 183.043 628.16 186.53 624.329C188.684 621.963 190.349 619.351 191.144 616.752C191.387 615.96 191.548 615.17 191.618 614.388C191.989 610.263 190.046 605.2 186.921 600.712C186.159 599.618 185.327 598.559 184.442 597.555C182.431 595.277 180.143 593.287 177.768 591.842C175.667 590.563 173.498 589.711 171.394 589.461Z" fill="#F78E8E"/>
<path d="M163.42 590.931C166.083 589.745 168.819 589.156 171.394 589.461C173.498 589.711 175.667 590.563 177.768 591.842M163.42 590.931C158.157 581.516 145.067 556.945 164.708 531.923C165.481 530.938 166.98 530.936 167.843 531.842C169.141 533.204 171.141 535.128 173.522 536.833C174.295 537.387 175.359 537.246 176.024 536.566C188.389 523.921 188.668 526.86 188.475 528.019C188.436 528.257 188.399 528.495 188.41 528.736C189.768 556.19 202.435 581.721 177.768 591.842M163.42 590.931C159.51 592.673 156.907 595.156 154.045 598.537M177.768 591.842C180.143 593.287 182.431 595.277 184.442 597.555C185.327 598.559 186.159 599.618 186.921 600.712M186.921 600.712C190.046 605.2 191.989 610.263 191.618 614.388C191.548 615.17 191.387 615.96 191.144 616.752M186.921 600.712C186.921 600.712 206.563 562.219 233.745 565.616C234.967 565.768 235.663 567.043 235.21 568.188C233.88 571.546 231.207 578.163 228.687 583.607C228.363 584.306 228.454 585.139 228.993 585.689C233.757 590.553 240.503 589.84 244.631 588.751C246.205 588.336 247.877 589.707 247.47 591.284C237.469 629.982 191.144 616.752 191.144 616.752M191.144 616.752C190.349 619.351 188.684 621.963 186.53 624.329M186.53 624.329C186.53 624.329 229.311 614.216 235.813 646.34C235.956 647.048 235.685 647.788 235.072 648.167C232.911 649.503 227.106 652.385 217.72 651.992C215.889 651.915 214.372 654.326 214.849 656.095C216.417 661.923 214.379 668.696 213.277 671.684C212.942 672.594 211.948 673.054 211.013 672.793C173.24 662.248 173.844 632.765 173.844 632.765M186.53 624.329C183.043 628.16 178.274 631.342 173.844 632.765M173.844 632.765C171.791 633.425 169.81 633.707 168.063 633.5C166.762 633.345 165.352 632.855 163.903 632.105M163.903 632.105C163.903 632.105 183.423 664.952 165.968 682.766C165.502 683.241 164.815 683.429 164.188 683.206C162.063 682.451 157.018 680.124 153.211 674.145C152.387 672.852 150.446 672.676 149.451 673.842C145.042 679.011 140.673 681.311 138.61 682.183C137.876 682.493 137.031 682.209 136.541 681.58C108.36 645.347 155.955 625.835 155.955 625.835M163.903 632.105C161.246 630.731 158.456 628.485 155.955 625.835M155.955 625.835C153.575 623.314 151.457 620.427 149.964 617.579M149.964 617.579C148.259 614.326 147.37 611.123 147.839 608.573C148.386 605.599 151.414 601.646 154.045 598.537M149.964 617.579C149.964 617.579 108.064 623.744 97.6948 591.362C97.4344 590.549 97.7445 589.654 98.472 589.207C100.466 587.982 104.71 585.612 109.333 584.488C111.26 584.02 112.935 580.378 112.318 578.494C111.195 575.061 111.542 571.575 111.874 569.716C112.022 568.887 112.739 568.306 113.581 568.305C135.286 568.271 154.045 598.537 154.045 598.537" stroke="#F78E8E" stroke-width="10"/>
<path d="M97.6722 562.372C94.7882 560.709 91.2615 560.019 87.5173 560.07C82.022 560.147 77.6931 561.76 72.6053 564.3C67.9255 566.637 62.3519 569.769 60.2009 573.001C58.3561 575.773 57.7842 580.003 58.1499 584.706C58.4699 588.822 59.5084 593.301 61.0403 597.48C62.6504 601.874 64.8056 605.937 67.2448 608.903C68.5756 610.522 69.9909 611.814 71.4484 612.654C73.4047 613.783 75.885 614.453 78.6427 614.714C84.5903 615.277 91.8284 613.936 97.8834 611.181C101.622 609.48 104.91 607.239 107.164 604.575C107.851 603.763 108.441 602.913 108.92 602.026C111.445 597.345 111.716 590.387 110.299 583.508C109.954 581.833 109.509 580.162 108.972 578.529C107.753 574.823 106.059 571.316 103.988 568.408C102.156 565.836 100.029 563.732 97.6722 562.372Z" fill="#FF9393"/>
<path d="M87.5173 560.07C91.2615 560.019 94.7882 560.709 97.6722 562.372C100.029 563.732 102.156 565.836 103.988 568.408M87.5173 560.07C86.0656 546.22 83.0314 510.281 119.506 490.766C120.609 490.176 121.994 490.76 122.416 491.939C123.253 494.278 124.795 498.081 127.067 501.74C127.569 502.548 128.612 502.835 129.491 502.47C151.416 493.38 149.685 497.409 148.876 498.598C148.74 498.797 148.613 499.004 148.529 499.229C136.193 532.34 138.255 568.952 103.988 568.408M87.5173 560.07C82.022 560.147 77.6931 561.76 72.6053 564.3M103.988 568.408C106.059 571.316 107.753 574.823 108.972 578.529C109.509 580.162 109.954 581.833 110.299 583.508M110.299 583.508C111.716 590.387 111.445 597.345 108.92 602.026C108.441 602.913 107.851 603.763 107.164 604.575M110.299 583.508C110.299 583.508 153.499 547.583 183.889 566.135C184.94 566.777 185.086 568.224 184.219 569.098C181.093 572.252 174.061 579.261 167.979 584.705C167.405 585.218 167.163 586.018 167.426 586.741C170.696 595.742 180.162 598.13 185.554 598.753C187.172 598.94 188.152 600.87 187.177 602.175C155.803 644.183 107.164 604.575 107.164 604.575M107.164 604.575C104.91 607.239 101.622 609.48 97.8834 611.181M97.8834 611.181C97.8834 611.181 153.782 620.955 144.828 662.432C144.676 663.137 144.137 663.714 143.425 663.833C140.349 664.346 131.283 665.07 119.359 658.955C117.728 658.119 115.48 659.702 115.37 661.531C114.857 670.088 107.964 678.035 105.146 680.946C104.471 681.643 103.374 681.67 102.616 681.065C62.9062 649.419 78.6427 614.714 78.6427 614.714M97.8834 611.181C91.8284 613.936 84.5903 615.277 78.6427 614.714M78.6427 614.714C75.885 614.453 73.4047 613.783 71.4484 612.654C69.9909 611.814 68.5756 610.522 67.2448 608.903M67.2448 608.903C67.2448 608.903 73.6927 657.852 43.7552 669.846C43.1381 670.093 42.4305 669.996 41.9354 669.553C39.8741 667.705 34.5165 662.042 33.2037 652.136C33.0023 650.617 31.2923 649.692 29.9323 650.399C21.3516 654.858 14.4437 655.251 11.6754 655.189C10.8786 655.172 10.2137 654.574 10.0085 653.803C-5.2853 596.408 61.0403 597.48 61.0403 597.48M67.2448 608.903C64.8056 605.937 62.6504 601.874 61.0403 597.48M61.0403 597.48C59.5084 593.301 58.4699 588.822 58.1499 584.706M58.1499 584.706C57.7842 580.003 58.3561 575.773 60.2009 573.001C62.3519 569.769 67.9255 566.637 72.6053 564.3M58.1499 584.706C58.1499 584.706 5.25641 570.683 9.77993 526.902C9.86769 526.053 10.5048 525.35 11.3486 525.219C14.4081 524.745 21.9641 523.872 28.8066 525.457C30.7385 525.904 33.4901 523.395 33.4458 521.413C33.3184 515.717 36.1915 510.754 37.6514 508.61C38.1256 507.913 39.0119 507.666 39.791 507.987C65.7241 518.657 72.6053 564.3 72.6053 564.3" stroke="#FF9393" stroke-width="10"/>
</g>
</svg>